<?xml version="1.0" encoding="UTF-8"?>
<svg width="200px" height="332px" viewBox="0 0 200 332" version="1.1" xmlns="http://www.w3.org/2000/svg" xmlns:xlink="http://www.w3.org/1999/xlink">
    <!-- Generator: Sketch 60.1 (88133) - https://sketch.com -->
    <title>Group 25</title>
    <desc>Created with Sketch.</desc>
    <defs>
        <linearGradient x1="29.0748143%" y1="100%" x2="74.8657542%" y2="16.2222055%" id="linearGradient-1">
            <stop stop-color="#009EE8" offset="0%"></stop>
            <stop stop-color="#6556A8" offset="100%"></stop>
        </linearGradient>
        <linearGradient x1="5.67210478%" y1="55.3676928%" x2="101.846278%" y2="55.3676928%" id="linearGradient-2">
            <stop stop-color="#009EE8" stop-opacity="0.643083479" offset="0%"></stop>
            <stop stop-color="#6556A8" offset="100%"></stop>
        </linearGradient>
        <radialGradient cx="62.3766818%" cy="36.9198327%" fx="62.3766818%" fy="36.9198327%" r="47.9449193%" gradientTransform="translate(0.623767,0.369198),scale(1.000000,0.944444),translate(-0.623767,-0.369198)" id="radialGradient-3">
            <stop stop-color="#FFFFFF" offset="0%"></stop>
            <stop stop-color="#D2A143" offset="100%"></stop>
        </radialGradient>
        <radialGradient cx="57.6857531%" cy="37.5204255%" fx="57.6857531%" fy="37.5204255%" r="104.384591%" id="radialGradient-4">
            <stop stop-color="#00B8EE" offset="0%"></stop>
            <stop stop-color="#0092D3" offset="22%"></stop>
            <stop stop-color="#007BC2" offset="30%"></stop>
            <stop stop-color="#0069B5" offset="38%"></stop>
            <stop stop-color="#005EAD" offset="47%"></stop>
            <stop stop-color="#005BAB" offset="57%"></stop>
        </radialGradient>
    </defs>
    <g id="Page-1" stroke="none" stroke-width="1" fill="none" fill-rule="evenodd">
        <g id="주식버튼" transform="translate(-676.000000, -64.000000)">
            <g id="Group-25" transform="translate(676.000000, 64.000000)">
                <rect id="Rectangle" stroke="url(#linearGradient-1)" stroke-width="2" fill="#FFFFFF" x="1" y="33" width="198" height="298"></rect>
                <g id="Group-7">
                    <path d="M20,0 L180,0 C191.045695,-2.02906125e-15 200,8.954305 200,20 L200,32 L200,32 L0,32 L0,20 C-1.3527075e-15,8.954305 8.954305,2.02906125e-15 20,0 Z" id="Rectangle" fill="url(#linearGradient-2)"></path>
                    <g id="Group-2" transform="translate(13.000000, 6.000000)">
                        <circle id="Oval" fill="#FFFFFF" cx="10" cy="10" r="10"></circle>
                        <path d="M10.1166943,1.00925728 C6.68233975,1.17347037 3.67957761,3.51203068 2.50859233,6.93447031 C1.33760705,10.3569099 2.22900438,14.1892373 4.76712679,16.6444426 C7.3052492,19.099648 10.9902564,19.6942202 14.1038339,18.150911 C17.2174115,16.6076017 19.1463929,13.2303396 18.9912964,9.59393806 C18.8900725,7.20927883 17.8980808,4.96493371 16.2336611,3.35488835 C14.5692414,1.74484299 12.3688126,0.901059738 10.1166943,1.00925728 Z" id="Path" fill="url(#radialGradient-3)" fill-rule="nonzero"></path>
                        <path d="M9.59466809,1.00919034 C5.95813472,1.1731997 2.77850873,3.51176255 1.53854823,6.93433459 C0.298587726,10.3569066 1.24250286,14.1894125 3.93011675,16.644636 C6.61773064,19.0998595 10.5197179,19.6942444 13.816461,18.1506108 C17.1132041,16.6069771 19.1554096,13.2293434 18.990734,9.59280481 C18.8830181,7.20852709 17.8325554,4.96469803 16.0704437,3.35495115 C14.308332,1.74520427 11.9789196,0.901406613 9.59466809,1.00919034 Z M10.6491536,9.74235841 C12.2485042,11.2159853 13.1258133,12.0113818 13.1258133,12.0113818 C15.9444425,14.3594685 14.9823555,16.5056103 13.9050085,17.2505206 C13.082948,17.822063 12.1722993,18.0859251 10.9787398,18.1506999 C10.9054873,18.162361 10.830647,18.1436491 10.7715019,18.0988853 C10.7123567,18.0541215 10.6740208,17.9871765 10.6653471,17.9135098 C10.6577266,17.7096597 10.9511156,17.6582208 10.9511156,17.6582208 C13.6182875,17.134307 12.835282,15.3891975 11.8931988,14.4985439 C11.4978858,14.123231 7.79146932,10.9273563 7.79146932,10.9273563 C4.26318181,7.88675071 4.54609255,5.51199198 4.54609255,5.51199198 C4.71564849,2.58950511 7.27518103,1.86459882 9.21364352,2.03225126 C9.44035314,2.05130267 9.56609125,2.19037799 9.52513111,2.37898699 C9.48226584,2.58474226 9.18316156,2.59998339 9.18316156,2.59998339 C8.56780688,2.63618107 8.01722638,2.69524046 7.59714679,2.98101166 C6.03780374,4.02883942 6.49789091,5.81490946 8.57828505,7.80197192 C8.83928688,8.05249801 9.11743482,8.31540752 9.40225068,8.58307988 C9.399393,8.58307988 9.81852003,8.95172474 10.6491536,9.74235841 Z M9.4413057,17.296244 C9.45749925,17.5820152 8.76403453,17.7058494 7.97340855,17.6286911 C6.97893443,17.5334341 5.79109033,17.2181332 4.75756119,16.3236693 C3.80499977,15.5006482 3.21726937,14.3699468 2.93150094,13.3783207 C2.63906459,12.3609752 2.5152316,11.172167 2.99913281,11.2655189 C3.14773239,11.2950486 3.40492397,11.9485121 3.68402447,12.4238449 C3.96979289,12.9153714 4.20888581,13.1859015 4.42797494,13.3526013 C4.52894645,13.4278544 4.86710575,12.6734184 5.36053257,12.243809 C5.646301,12.0075715 5.96159883,11.926603 6.01208458,12.6324579 C6.07400108,13.5002498 5.91682844,14.5309313 6.17020978,14.5309313 C6.42359112,14.5309313 6.94083197,14.351848 8.11248252,14.2527806 C8.5525659,14.2156304 8.80308955,14.298504 8.38300996,14.891003 C8.07643774,15.3561007 7.68511697,15.7593815 7.22945808,16.0798112 C8.22488477,17.0123779 9.42034935,16.9009271 9.4413057,17.296244 L9.4413057,17.296244 Z M10.2262163,8.22681845 C10.1438807,7.85537405 10.13289,7.47166539 10.1938292,7.09611704 C10.3186148,6.11401666 10.5834268,5.65201987 10.8834837,4.89091589 C11.29118,3.86785497 10.3024212,3.27154572 10.4653092,2.89051745 C10.6891612,2.38089213 11.3950092,3.0286402 12.1799198,3.07626873 C12.8581435,3.11341899 13.2658398,3.07626873 13.7926063,3.15056925 C14.4927389,3.24582632 15.3300404,3.48111128 15.7034445,3.91929379 C16.0444615,4.31937348 15.5224578,4.80804224 14.8937673,4.50131448 C14.4355852,4.27841294 13.8564279,4.41558312 14.1955398,4.89377361 C14.6051412,5.3491024 14.8004163,5.36148581 15.2166856,5.47103144 C16.3597593,5.77299635 16.3854785,6.87035779 15.611046,7.43904249 C14.7280216,8.08393284 13.8354715,7.82007076 13.4763559,6.55029403 C13.2963218,5.91873967 12.8495705,5.59772335 12.392341,5.77585406 C11.9351115,5.95398478 12.2018287,6.78653156 12.5523713,7.55811382 C13.245836,9.32513245 11.5245575,9.26607307 11.3245196,9.24321137 C10.7960948,9.13854072 10.3714519,8.74556736 10.2262163,8.22681845 L10.2262163,8.22681845 Z" id="Shape" fill="url(#radialGradient-4)" fill-rule="nonzero"></path>
                    </g>
                    <text id="포인트-대신-주식으로-GET!" font-family="AppleSDGothicNeo-Medium, Apple SD Gothic Neo" font-size="12" font-weight="400" fill="#FFFFFF">
                        <tspan x="46" y="20">포인트 대신 주식으로 GET!</tspan>
                    </text>
                </g>
            </g>
        </g>
    </g>
</svg>