<?xml version="1.0" encoding="UTF-8"?>
<svg width="133px" height="117px" viewBox="0 0 133 117" version="1.1" xmlns="http://www.w3.org/2000/svg" xmlns:xlink="http://www.w3.org/1999/xlink">
    <!-- Generator: Sketch 60.1 (88133) - https://sketch.com -->
    <title>Group 37</title>
    <desc>Created with Sketch.</desc>
    <defs>
        <linearGradient x1="50%" y1="48.496236%" x2="50.0291587%" y2="50.8340333%" id="linearGradient-1">
            <stop stop-color="#8769B6" offset="0%"></stop>
            <stop stop-color="#5919BD" offset="38.2578858%"></stop>
            <stop stop-color="#9080A8" offset="52.056291%"></stop>
            <stop stop-color="#8A70B2" offset="53.435139%"></stop>
            <stop stop-color="#958DA1" offset="66.6946497%"></stop>
            <stop stop-color="#999999" offset="75.0422297%"></stop>
            <stop stop-color="#999999" stop-opacity="0" offset="100%"></stop>
        </linearGradient>
        <filter x="17.5%" y="-41.9%" width="81.3%" height="184.2%" filterUnits="objectBoundingBox" id="filter-2">
            <feGaussianBlur stdDeviation="2" in="SourceGraphic"></feGaussianBlur>
        </filter>
        <path d="M16.9935345,1.25517241 C9.12284483,4.12413793 8.40732759,13.0896552 10.1961207,16.3172414 L10.1961207,16.3172414 C11.5377155,18.737931 9.06238362,21.4297379 8.71607328,21.8364138 L8.71607328,21.8364138 C6.15380603,24.8477517 -2.71932328,35.6555034 0.894396552,47.5172414 L0.894396552,47.5172414 C4.48021121,59.287531 14.367944,65.0164966 25.0484698,67.6369379 L25.0484698,67.6369379 C24.2277716,68.2595034 23.7909483,68.6758621 23.7909483,68.6758621 L23.7909483,68.6758621 C23.7909483,68.6758621 12.3426724,82.3034483 21.2866379,86.2482759 L21.2866379,86.2482759 C21.2866379,86.2482759 25.5797414,87.6827586 26.6530172,84.8137931 L26.6530172,84.8137931 C26.6530172,84.8137931 27.3685345,90.9103448 28.4418103,91.9862069 L28.4418103,91.9862069 C29.5150862,93.062069 29.1573276,99.1586207 29.1573276,99.1586207 L29.1573276,99.1586207 C29.1573276,99.1586207 29.1573276,103.82069 36.3125,103.462069 L36.3125,103.462069 C41.3450905,103.209959 41.9522069,102.248497 41.8699224,101.700166 L41.8699224,101.700166 C42.3604095,102.523917 43.9345474,104.300883 48.1185345,103.462069 L48.1185345,103.462069 C53.4849138,102.386207 54.200431,103.462069 54.5581897,93.7793103 L54.5581897,93.7793103 C54.5581897,93.7793103 55.9892241,91.6275862 57.0625,85.5310345 L57.0625,85.5310345 C57.0625,85.5310345 59.2090517,88.0413793 63.1443966,85.8896552 L63.1443966,85.8896552 C67.0797414,83.737931 64.2176724,76.2068966 64.2176724,76.2068966 L64.2176724,76.2068966 L59.2780991,68.4259034 C59.6959612,68.3588414 59.924569,68.3172414 59.924569,68.3172414 L59.924569,68.3172414 C59.924569,68.3172414 79.2435345,66.8827586 82.4633621,45.3655172 L82.4633621,45.3655172 C82.4633621,45.3655172 84.0732759,32.9931034 78.0128448,24.0261517 L78.0128448,24.0261517 C77.6493621,23.4882207 85.862069,12.5517241 76.3814655,5.91724138 L76.3814655,5.91724138 C71.7137888,2.65092414 67.6317629,3.59266207 64.6552112,5.44171034 L64.6552112,5.44171034 C63.2127284,6.33826207 62.0145948,7.56402759 61.015375,8.93933793 L61.015375,8.93933793 C60.2290216,10.0216552 58.7618534,11.2965517 56.5258621,10.4 L56.5258621,10.4 C53.1436121,9.04405517 44.6446983,7.36714483 36.7736509,8.7030069 L36.7736509,8.7030069 C36.1822759,8.80342069 33.2862198,9.21942069 32.0193966,5.91724138 L32.0193966,5.91724138 C30.7246681,2.54297931 27.5556422,0.107944828 22.9201638,0.107944828 L22.9201638,0.107944828 C21.1506897,0.107944828 19.1679914,0.46262069 16.9935345,1.25517241" id="path-3"></path>
        <path d="M16.9935345,1.25517241 C9.12284483,4.12413793 8.40732759,13.0896552 10.1961207,16.3172414 L10.1961207,16.3172414 C11.5377155,18.737931 9.06238362,21.4297379 8.71607328,21.8364138 L8.71607328,21.8364138 C6.15380603,24.8477517 -2.71932328,35.6555034 0.894396552,47.5172414 L0.894396552,47.5172414 C4.48021121,59.287531 14.367944,65.0164966 25.0484698,67.6369379 L25.0484698,67.6369379 C24.2277716,68.2595034 23.7909483,68.6758621 23.7909483,68.6758621 L23.7909483,68.6758621 C23.7909483,68.6758621 12.3426724,82.3034483 21.2866379,86.2482759 L21.2866379,86.2482759 C21.2866379,86.2482759 25.5797414,87.6827586 26.6530172,84.8137931 L26.6530172,84.8137931 C26.6530172,84.8137931 27.3685345,90.9103448 28.4418103,91.9862069 L28.4418103,91.9862069 C29.5150862,93.062069 29.1573276,99.1586207 29.1573276,99.1586207 L29.1573276,99.1586207 C29.1573276,99.1586207 29.1573276,103.82069 36.3125,103.462069 L36.3125,103.462069 C41.3450905,103.209959 41.9522069,102.248497 41.8699224,101.700166 L41.8699224,101.700166 C42.3604095,102.523917 43.9345474,104.300883 48.1185345,103.462069 L48.1185345,103.462069 C53.4849138,102.386207 54.200431,103.462069 54.5581897,93.7793103 L54.5581897,93.7793103 C54.5581897,93.7793103 55.9892241,91.6275862 57.0625,85.5310345 L57.0625,85.5310345 C57.0625,85.5310345 59.2090517,88.0413793 63.1443966,85.8896552 L63.1443966,85.8896552 C67.0797414,83.737931 64.2176724,76.2068966 64.2176724,76.2068966 L64.2176724,76.2068966 L59.2780991,68.4259034 C59.6959612,68.3588414 59.924569,68.3172414 59.924569,68.3172414 L59.924569,68.3172414 C59.924569,68.3172414 79.2435345,66.8827586 82.4633621,45.3655172 L82.4633621,45.3655172 C82.4633621,45.3655172 84.0732759,32.9931034 78.0128448,24.0261517 L78.0128448,24.0261517 C77.6493621,23.4882207 85.862069,12.5517241 76.3814655,5.91724138 L76.3814655,5.91724138 C71.7137888,2.65092414 67.6317629,3.59266207 64.6552112,5.44171034 L64.6552112,5.44171034 C63.2127284,6.33826207 62.0145948,7.56402759 61.015375,8.93933793 L61.015375,8.93933793 C60.2290216,10.0216552 58.7618534,11.2965517 56.5258621,10.4 L56.5258621,10.4 C53.1436121,9.04405517 44.6446983,7.36714483 36.7736509,8.7030069 L36.7736509,8.7030069 C36.1822759,8.80342069 33.2862198,9.21942069 32.0193966,5.91724138 L32.0193966,5.91724138 C30.7246681,2.54297931 27.5556422,0.107944828 22.9201638,0.107944828 L22.9201638,0.107944828 C21.1506897,0.107944828 19.1679914,0.46262069 16.9935345,1.25517241" id="path-5"></path>
        <path d="M16.9935345,1.25517241 C9.12284483,4.12413793 8.40732759,13.0896552 10.1961207,16.3172414 L10.1961207,16.3172414 C11.5377155,18.737931 9.06238362,21.4297379 8.71607328,21.8364138 L8.71607328,21.8364138 C6.15380603,24.8477517 -2.71932328,35.6555034 0.894396552,47.5172414 L0.894396552,47.5172414 C4.48021121,59.287531 14.367944,65.0164966 25.0484698,67.6369379 L25.0484698,67.6369379 C24.2277716,68.2595034 23.7909483,68.6758621 23.7909483,68.6758621 L23.7909483,68.6758621 C23.7909483,68.6758621 12.3426724,82.3034483 21.2866379,86.2482759 L21.2866379,86.2482759 C21.2866379,86.2482759 25.5797414,87.6827586 26.6530172,84.8137931 L26.6530172,84.8137931 C26.6530172,84.8137931 27.3685345,90.9103448 28.4418103,91.9862069 L28.4418103,91.9862069 C29.5150862,93.062069 29.1573276,99.1586207 29.1573276,99.1586207 L29.1573276,99.1586207 C29.1573276,99.1586207 29.1573276,103.82069 36.3125,103.462069 L36.3125,103.462069 C41.3450905,103.209959 41.9522069,102.248497 41.8699224,101.700166 L41.8699224,101.700166 C42.3604095,102.523917 43.9345474,104.300883 48.1185345,103.462069 L48.1185345,103.462069 C53.4849138,102.386207 54.200431,103.462069 54.5581897,93.7793103 L54.5581897,93.7793103 C54.5581897,93.7793103 55.9892241,91.6275862 57.0625,85.5310345 L57.0625,85.5310345 C57.0625,85.5310345 59.2090517,88.0413793 63.1443966,85.8896552 L63.1443966,85.8896552 C67.0797414,83.737931 64.2176724,76.2068966 64.2176724,76.2068966 L64.2176724,76.2068966 L59.2780991,68.4259034 C59.6959612,68.3588414 59.924569,68.3172414 59.924569,68.3172414 L59.924569,68.3172414 C59.924569,68.3172414 79.2435345,66.8827586 82.4633621,45.3655172 L82.4633621,45.3655172 C82.4633621,45.3655172 84.0732759,32.9931034 78.0128448,24.0261517 L78.0128448,24.0261517 C77.6493621,23.4882207 85.862069,12.5517241 76.3814655,5.91724138 L76.3814655,5.91724138 C71.7137888,2.65092414 67.6317629,3.59266207 64.6552112,5.44171034 L64.6552112,5.44171034 C63.2127284,6.33826207 62.0145948,7.56402759 61.015375,8.93933793 L61.015375,8.93933793 C60.2290216,10.0216552 58.7618534,11.2965517 56.5258621,10.4 L56.5258621,10.4 C53.1436121,9.04405517 44.6446983,7.36714483 36.7736509,8.7030069 L36.7736509,8.7030069 C36.1822759,8.80342069 33.2862198,9.21942069 32.0193966,5.91724138 L32.0193966,5.91724138 C30.7246681,2.54297931 27.5556422,0.107944828 22.9201638,0.107944828 L22.9201638,0.107944828 C21.1506897,0.107944828 19.1679914,0.46262069 16.9935345,1.25517241" id="path-7"></path>
        <path d="M16.9935345,1.25517241 C9.12284483,4.12413793 8.40732759,13.0896552 10.1961207,16.3172414 L10.1961207,16.3172414 C11.5377155,18.737931 9.06238362,21.4297379 8.71607328,21.8364138 L8.71607328,21.8364138 C6.15380603,24.8477517 -2.71932328,35.6555034 0.894396552,47.5172414 L0.894396552,47.5172414 C4.48021121,59.287531 14.367944,65.0164966 25.0484698,67.6369379 L25.0484698,67.6369379 C24.2277716,68.2595034 23.7909483,68.6758621 23.7909483,68.6758621 L23.7909483,68.6758621 C23.7909483,68.6758621 12.3426724,82.3034483 21.2866379,86.2482759 L21.2866379,86.2482759 C21.2866379,86.2482759 25.5797414,87.6827586 26.6530172,84.8137931 L26.6530172,84.8137931 C26.6530172,84.8137931 27.3685345,90.9103448 28.4418103,91.9862069 L28.4418103,91.9862069 C29.5150862,93.062069 29.1573276,99.1586207 29.1573276,99.1586207 L29.1573276,99.1586207 C29.1573276,99.1586207 29.1573276,103.82069 36.3125,103.462069 L36.3125,103.462069 C41.3450905,103.209959 41.9522069,102.248497 41.8699224,101.700166 L41.8699224,101.700166 C42.3604095,102.523917 43.9345474,104.300883 48.1185345,103.462069 L48.1185345,103.462069 C53.4849138,102.386207 54.200431,103.462069 54.5581897,93.7793103 L54.5581897,93.7793103 C54.5581897,93.7793103 55.9892241,91.6275862 57.0625,85.5310345 L57.0625,85.5310345 C57.0625,85.5310345 59.2090517,88.0413793 63.1443966,85.8896552 L63.1443966,85.8896552 C67.0797414,83.737931 64.2176724,76.2068966 64.2176724,76.2068966 L64.2176724,76.2068966 L59.2780991,68.4259034 C59.6959612,68.3588414 59.924569,68.3172414 59.924569,68.3172414 L59.924569,68.3172414 C59.924569,68.3172414 79.2435345,66.8827586 82.4633621,45.3655172 L82.4633621,45.3655172 C82.4633621,45.3655172 84.0732759,32.9931034 78.0128448,24.0261517 L78.0128448,24.0261517 C77.6493621,23.4882207 85.862069,12.5517241 76.3814655,5.91724138 L76.3814655,5.91724138 C71.7137888,2.65092414 67.6317629,3.59266207 64.6552112,5.44171034 L64.6552112,5.44171034 C63.2127284,6.33826207 62.0145948,7.56402759 61.015375,8.93933793 L61.015375,8.93933793 C60.2290216,10.0216552 58.7618534,11.2965517 56.5258621,10.4 L56.5258621,10.4 C53.1436121,9.04405517 44.6446983,7.36714483 36.7736509,8.7030069 L36.7736509,8.7030069 C36.1822759,8.80342069 33.2862198,9.21942069 32.0193966,5.91724138 L32.0193966,5.91724138 C30.7246681,2.54297931 27.5556422,0.107944828 22.9201638,0.107944828 L22.9201638,0.107944828 C21.1506897,0.107944828 19.1679914,0.46262069 16.9935345,1.25517241" id="path-9"></path>
        <path d="M16.9935345,1.25517241 C9.12284483,4.12413793 8.40732759,13.0896552 10.1961207,16.3172414 L10.1961207,16.3172414 C11.5377155,18.737931 9.06238362,21.4297379 8.71607328,21.8364138 L8.71607328,21.8364138 C6.15380603,24.8477517 -2.71932328,35.6555034 0.894396552,47.5172414 L0.894396552,47.5172414 C4.48021121,59.287531 14.367944,65.0164966 25.0484698,67.6369379 L25.0484698,67.6369379 C24.2277716,68.2595034 23.7909483,68.6758621 23.7909483,68.6758621 L23.7909483,68.6758621 C23.7909483,68.6758621 12.3426724,82.3034483 21.2866379,86.2482759 L21.2866379,86.2482759 C21.2866379,86.2482759 25.5797414,87.6827586 26.6530172,84.8137931 L26.6530172,84.8137931 C26.6530172,84.8137931 27.3685345,90.9103448 28.4418103,91.9862069 L28.4418103,91.9862069 C29.5150862,93.062069 29.1573276,99.1586207 29.1573276,99.1586207 L29.1573276,99.1586207 C29.1573276,99.1586207 29.1573276,103.82069 36.3125,103.462069 L36.3125,103.462069 C41.3450905,103.209959 41.9522069,102.248497 41.8699224,101.700166 L41.8699224,101.700166 C42.3604095,102.523917 43.9345474,104.300883 48.1185345,103.462069 L48.1185345,103.462069 C53.4849138,102.386207 54.200431,103.462069 54.5581897,93.7793103 L54.5581897,93.7793103 C54.5581897,93.7793103 55.9892241,91.6275862 57.0625,85.5310345 L57.0625,85.5310345 C57.0625,85.5310345 59.2090517,88.0413793 63.1443966,85.8896552 L63.1443966,85.8896552 C67.0797414,83.737931 64.2176724,76.2068966 64.2176724,76.2068966 L64.2176724,76.2068966 L59.2780991,68.4259034 C59.6959612,68.3588414 59.924569,68.3172414 59.924569,68.3172414 L59.924569,68.3172414 C59.924569,68.3172414 79.2435345,66.8827586 82.4633621,45.3655172 L82.4633621,45.3655172 C82.4633621,45.3655172 84.0732759,32.9931034 78.0128448,24.0261517 L78.0128448,24.0261517 C77.6493621,23.4882207 85.862069,12.5517241 76.3814655,5.91724138 L76.3814655,5.91724138 C71.7137888,2.65092414 67.6317629,3.59266207 64.6552112,5.44171034 L64.6552112,5.44171034 C63.2127284,6.33826207 62.0145948,7.56402759 61.015375,8.93933793 L61.015375,8.93933793 C60.2290216,10.0216552 58.7618534,11.2965517 56.5258621,10.4 L56.5258621,10.4 C53.1436121,9.04405517 44.6446983,7.36714483 36.7736509,8.7030069 L36.7736509,8.7030069 C36.1822759,8.80342069 33.2862198,9.21942069 32.0193966,5.91724138 L32.0193966,5.91724138 C30.7246681,2.54297931 27.5556422,0.107944828 22.9201638,0.107944828 L22.9201638,0.107944828 C21.1506897,0.107944828 19.1679914,0.46262069 16.9935345,1.25517241" id="path-11"></path>
        <path d="M16.9935345,1.25517241 C9.12284483,4.12413793 8.40732759,13.0896552 10.1961207,16.3172414 L10.1961207,16.3172414 C11.5377155,18.737931 9.06238362,21.4297379 8.71607328,21.8364138 L8.71607328,21.8364138 C6.15380603,24.8477517 -2.71932328,35.6555034 0.894396552,47.5172414 L0.894396552,47.5172414 C4.48021121,59.287531 14.367944,65.0164966 25.0484698,67.6369379 L25.0484698,67.6369379 C24.2277716,68.2595034 23.7909483,68.6758621 23.7909483,68.6758621 L23.7909483,68.6758621 C23.7909483,68.6758621 12.3426724,82.3034483 21.2866379,86.2482759 L21.2866379,86.2482759 C21.2866379,86.2482759 25.5797414,87.6827586 26.6530172,84.8137931 L26.6530172,84.8137931 C26.6530172,84.8137931 27.3685345,90.9103448 28.4418103,91.9862069 L28.4418103,91.9862069 C29.5150862,93.062069 29.1573276,99.1586207 29.1573276,99.1586207 L29.1573276,99.1586207 C29.1573276,99.1586207 29.1573276,103.82069 36.3125,103.462069 L36.3125,103.462069 C41.3450905,103.209959 41.9522069,102.248497 41.8699224,101.700166 L41.8699224,101.700166 C42.3604095,102.523917 43.9345474,104.300883 48.1185345,103.462069 L48.1185345,103.462069 C53.4849138,102.386207 54.200431,103.462069 54.5581897,93.7793103 L54.5581897,93.7793103 C54.5581897,93.7793103 55.9892241,91.6275862 57.0625,85.5310345 L57.0625,85.5310345 C57.0625,85.5310345 59.2090517,88.0413793 63.1443966,85.8896552 L63.1443966,85.8896552 C67.0797414,83.737931 64.2176724,76.2068966 64.2176724,76.2068966 L64.2176724,76.2068966 L59.2780991,68.4259034 C59.6959612,68.3588414 59.924569,68.3172414 59.924569,68.3172414 L59.924569,68.3172414 C59.924569,68.3172414 79.2435345,66.8827586 82.4633621,45.3655172 L82.4633621,45.3655172 C82.4633621,45.3655172 84.0732759,32.9931034 78.0128448,24.0261517 L78.0128448,24.0261517 C77.6493621,23.4882207 85.862069,12.5517241 76.3814655,5.91724138 L76.3814655,5.91724138 C71.7137888,2.65092414 67.6317629,3.59266207 64.6552112,5.44171034 L64.6552112,5.44171034 C63.2127284,6.33826207 62.0145948,7.56402759 61.015375,8.93933793 L61.015375,8.93933793 C60.2290216,10.0216552 58.7618534,11.2965517 56.5258621,10.4 L56.5258621,10.4 C53.1436121,9.04405517 44.6446983,7.36714483 36.7736509,8.7030069 L36.7736509,8.7030069 C36.1822759,8.80342069 33.2862198,9.21942069 32.0193966,5.91724138 L32.0193966,5.91724138 C30.7246681,2.54297931 27.5556422,0.107944828 22.9201638,0.107944828 L22.9201638,0.107944828 C21.1506897,0.107944828 19.1679914,0.46262069 16.9935345,1.25517241" id="path-13"></path>
        <path d="M16.9935345,1.25517241 C9.12284483,4.12413793 8.40732759,13.0896552 10.1961207,16.3172414 L10.1961207,16.3172414 C11.5377155,18.737931 9.06238362,21.4297379 8.71607328,21.8364138 L8.71607328,21.8364138 C6.15380603,24.8477517 -2.71932328,35.6555034 0.894396552,47.5172414 L0.894396552,47.5172414 C4.48021121,59.287531 14.367944,65.0164966 25.0484698,67.6369379 L25.0484698,67.6369379 C24.2277716,68.2595034 23.7909483,68.6758621 23.7909483,68.6758621 L23.7909483,68.6758621 C23.7909483,68.6758621 12.3426724,82.3034483 21.2866379,86.2482759 L21.2866379,86.2482759 C21.2866379,86.2482759 25.5797414,87.6827586 26.6530172,84.8137931 L26.6530172,84.8137931 C26.6530172,84.8137931 27.3685345,90.9103448 28.4418103,91.9862069 L28.4418103,91.9862069 C29.5150862,93.062069 29.1573276,99.1586207 29.1573276,99.1586207 L29.1573276,99.1586207 C29.1573276,99.1586207 29.1573276,103.82069 36.3125,103.462069 L36.3125,103.462069 C41.3450905,103.209959 41.9522069,102.248497 41.8699224,101.700166 L41.8699224,101.700166 C42.3604095,102.523917 43.9345474,104.300883 48.1185345,103.462069 L48.1185345,103.462069 C53.4849138,102.386207 54.200431,103.462069 54.5581897,93.7793103 L54.5581897,93.7793103 C54.5581897,93.7793103 55.9892241,91.6275862 57.0625,85.5310345 L57.0625,85.5310345 C57.0625,85.5310345 59.2090517,88.0413793 63.1443966,85.8896552 L63.1443966,85.8896552 C67.0797414,83.737931 64.2176724,76.2068966 64.2176724,76.2068966 L64.2176724,76.2068966 L59.2780991,68.4259034 C59.6959612,68.3588414 59.924569,68.3172414 59.924569,68.3172414 L59.924569,68.3172414 C59.924569,68.3172414 79.2435345,66.8827586 82.4633621,45.3655172 L82.4633621,45.3655172 C82.4633621,45.3655172 84.0732759,32.9931034 78.0128448,24.0261517 L78.0128448,24.0261517 C77.6493621,23.4882207 85.862069,12.5517241 76.3814655,5.91724138 L76.3814655,5.91724138 C71.7137888,2.65092414 67.6317629,3.59266207 64.6552112,5.44171034 L64.6552112,5.44171034 C63.2127284,6.33826207 62.0145948,7.56402759 61.015375,8.93933793 L61.015375,8.93933793 C60.2290216,10.0216552 58.7618534,11.2965517 56.5258621,10.4 L56.5258621,10.4 C53.1436121,9.04405517 44.6446983,7.36714483 36.7736509,8.7030069 L36.7736509,8.7030069 C36.1822759,8.80342069 33.2862198,9.21942069 32.0193966,5.91724138 L32.0193966,5.91724138 C30.7246681,2.54297931 27.5556422,0.107944828 22.9201638,0.107944828 L22.9201638,0.107944828 C21.1506897,0.107944828 19.1679914,0.46262069 16.9935345,1.25517241" id="path-15"></path>
        <path d="M16.9935345,1.25517241 C9.12284483,4.12413793 8.40732759,13.0896552 10.1961207,16.3172414 L10.1961207,16.3172414 C11.5377155,18.737931 9.06238362,21.4297379 8.71607328,21.8364138 L8.71607328,21.8364138 C6.15380603,24.8477517 -2.71932328,35.6555034 0.894396552,47.5172414 L0.894396552,47.5172414 C4.48021121,59.287531 14.367944,65.0164966 25.0484698,67.6369379 L25.0484698,67.6369379 C24.2277716,68.2595034 23.7909483,68.6758621 23.7909483,68.6758621 L23.7909483,68.6758621 C23.7909483,68.6758621 12.3426724,82.3034483 21.2866379,86.2482759 L21.2866379,86.2482759 C21.2866379,86.2482759 25.5797414,87.6827586 26.6530172,84.8137931 L26.6530172,84.8137931 C26.6530172,84.8137931 27.3685345,90.9103448 28.4418103,91.9862069 L28.4418103,91.9862069 C29.5150862,93.062069 29.1573276,99.1586207 29.1573276,99.1586207 L29.1573276,99.1586207 C29.1573276,99.1586207 29.1573276,103.82069 36.3125,103.462069 L36.3125,103.462069 C41.3450905,103.209959 41.9522069,102.248497 41.8699224,101.700166 L41.8699224,101.700166 C42.3604095,102.523917 43.9345474,104.300883 48.1185345,103.462069 L48.1185345,103.462069 C53.4849138,102.386207 54.200431,103.462069 54.5581897,93.7793103 L54.5581897,93.7793103 C54.5581897,93.7793103 55.9892241,91.6275862 57.0625,85.5310345 L57.0625,85.5310345 C57.0625,85.5310345 59.2090517,88.0413793 63.1443966,85.8896552 L63.1443966,85.8896552 C67.0797414,83.737931 64.2176724,76.2068966 64.2176724,76.2068966 L64.2176724,76.2068966 L59.2780991,68.4259034 C59.6959612,68.3588414 59.924569,68.3172414 59.924569,68.3172414 L59.924569,68.3172414 C59.924569,68.3172414 79.2435345,66.8827586 82.4633621,45.3655172 L82.4633621,45.3655172 C82.4633621,45.3655172 84.0732759,32.9931034 78.0128448,24.0261517 L78.0128448,24.0261517 C77.6493621,23.4882207 85.862069,12.5517241 76.3814655,5.91724138 L76.3814655,5.91724138 C71.7137888,2.65092414 67.6317629,3.59266207 64.6552112,5.44171034 L64.6552112,5.44171034 C63.2127284,6.33826207 62.0145948,7.56402759 61.015375,8.93933793 L61.015375,8.93933793 C60.2290216,10.0216552 58.7618534,11.2965517 56.5258621,10.4 L56.5258621,10.4 C53.1436121,9.04405517 44.6446983,7.36714483 36.7736509,8.7030069 L36.7736509,8.7030069 C36.1822759,8.80342069 33.2862198,9.21942069 32.0193966,5.91724138 L32.0193966,5.91724138 C30.7246681,2.54297931 27.5556422,0.107944828 22.9201638,0.107944828 L22.9201638,0.107944828 C21.1506897,0.107944828 19.1679914,0.46262069 16.9935345,1.25517241 L16.9935345,1.25517241 Z" id="path-17"></path>
        <path d="M16.9935345,1.25517241 C9.12284483,4.12413793 8.40732759,13.0896552 10.1961207,16.3172414 L10.1961207,16.3172414 C11.5377155,18.737931 9.06238362,21.4297379 8.71607328,21.8364138 L8.71607328,21.8364138 C6.15380603,24.8477517 -2.71932328,35.6555034 0.894396552,47.5172414 L0.894396552,47.5172414 C4.48021121,59.287531 14.367944,65.0164966 25.0484698,67.6369379 L25.0484698,67.6369379 C24.2277716,68.2595034 23.7909483,68.6758621 23.7909483,68.6758621 L23.7909483,68.6758621 C23.7909483,68.6758621 12.3426724,82.3034483 21.2866379,86.2482759 L21.2866379,86.2482759 C21.2866379,86.2482759 25.5797414,87.6827586 26.6530172,84.8137931 L26.6530172,84.8137931 C26.6530172,84.8137931 27.3685345,90.9103448 28.4418103,91.9862069 L28.4418103,91.9862069 C29.5150862,93.062069 29.1573276,99.1586207 29.1573276,99.1586207 L29.1573276,99.1586207 C29.1573276,99.1586207 29.1573276,103.82069 36.3125,103.462069 L36.3125,103.462069 C41.3450905,103.209959 41.9522069,102.248497 41.8699224,101.700166 L41.8699224,101.700166 C42.3604095,102.523917 43.9345474,104.300883 48.1185345,103.462069 L48.1185345,103.462069 C53.4849138,102.386207 54.200431,103.462069 54.5581897,93.7793103 L54.5581897,93.7793103 C54.5581897,93.7793103 55.9892241,91.6275862 57.0625,85.5310345 L57.0625,85.5310345 C57.0625,85.5310345 59.2090517,88.0413793 63.1443966,85.8896552 L63.1443966,85.8896552 C67.0797414,83.737931 64.2176724,76.2068966 64.2176724,76.2068966 L64.2176724,76.2068966 L59.2780991,68.4259034 C59.6959612,68.3588414 59.924569,68.3172414 59.924569,68.3172414 L59.924569,68.3172414 C59.924569,68.3172414 79.2435345,66.8827586 82.4633621,45.3655172 L82.4633621,45.3655172 C82.4633621,45.3655172 84.0732759,32.9931034 78.0128448,24.0261517 L78.0128448,24.0261517 C77.6493621,23.4882207 85.862069,12.5517241 76.3814655,5.91724138 L76.3814655,5.91724138 C71.7137888,2.65092414 67.6317629,3.59266207 64.6552112,5.44171034 L64.6552112,5.44171034 C63.2127284,6.33826207 62.0145948,7.56402759 61.015375,8.93933793 L61.015375,8.93933793 C60.2290216,10.0216552 58.7618534,11.2965517 56.5258621,10.4 L56.5258621,10.4 C53.1436121,9.04405517 44.6446983,7.36714483 36.7736509,8.7030069 L36.7736509,8.7030069 C36.1822759,8.80342069 33.2862198,9.21942069 32.0193966,5.91724138 L32.0193966,5.91724138 C30.7246681,2.54297931 27.5556422,0.107944828 22.9201638,0.107944828 L22.9201638,0.107944828 C21.1506897,0.107944828 19.1679914,0.46262069 16.9935345,1.25517241" id="path-19"></path>
        <path d="M16.9935345,1.25517241 C9.12284483,4.12413793 8.40732759,13.0896552 10.1961207,16.3172414 L10.1961207,16.3172414 C11.5377155,18.737931 9.06238362,21.4297379 8.71607328,21.8364138 L8.71607328,21.8364138 C6.15380603,24.8477517 -2.71932328,35.6555034 0.894396552,47.5172414 L0.894396552,47.5172414 C4.48021121,59.287531 14.367944,65.0164966 25.0484698,67.6369379 L25.0484698,67.6369379 C24.2277716,68.2595034 23.7909483,68.6758621 23.7909483,68.6758621 L23.7909483,68.6758621 C23.7909483,68.6758621 12.3426724,82.3034483 21.2866379,86.2482759 L21.2866379,86.2482759 C21.2866379,86.2482759 25.5797414,87.6827586 26.6530172,84.8137931 L26.6530172,84.8137931 C26.6530172,84.8137931 27.3685345,90.9103448 28.4418103,91.9862069 L28.4418103,91.9862069 C29.5150862,93.062069 29.1573276,99.1586207 29.1573276,99.1586207 L29.1573276,99.1586207 C29.1573276,99.1586207 29.1573276,103.82069 36.3125,103.462069 L36.3125,103.462069 C41.3450905,103.209959 41.9522069,102.248497 41.8699224,101.700166 L41.8699224,101.700166 C42.3604095,102.523917 43.9345474,104.300883 48.1185345,103.462069 L48.1185345,103.462069 C53.4849138,102.386207 54.200431,103.462069 54.5581897,93.7793103 L54.5581897,93.7793103 C54.5581897,93.7793103 55.9892241,91.6275862 57.0625,85.5310345 L57.0625,85.5310345 C57.0625,85.5310345 59.2090517,88.0413793 63.1443966,85.8896552 L63.1443966,85.8896552 C67.0797414,83.737931 64.2176724,76.2068966 64.2176724,76.2068966 L64.2176724,76.2068966 L59.2780991,68.4259034 C59.6959612,68.3588414 59.924569,68.3172414 59.924569,68.3172414 L59.924569,68.3172414 C59.924569,68.3172414 79.2435345,66.8827586 82.4633621,45.3655172 L82.4633621,45.3655172 C82.4633621,45.3655172 84.0732759,32.9931034 78.0128448,24.0261517 L78.0128448,24.0261517 C77.6493621,23.4882207 85.862069,12.5517241 76.3814655,5.91724138 L76.3814655,5.91724138 C71.7137888,2.65092414 67.6317629,3.59266207 64.6552112,5.44171034 L64.6552112,5.44171034 C63.2127284,6.33826207 62.0145948,7.56402759 61.015375,8.93933793 L61.015375,8.93933793 C60.2290216,10.0216552 58.7618534,11.2965517 56.5258621,10.4 L56.5258621,10.4 C53.1436121,9.04405517 44.6446983,7.36714483 36.7736509,8.7030069 L36.7736509,8.7030069 C36.1822759,8.80342069 33.2862198,9.21942069 32.0193966,5.91724138 L32.0193966,5.91724138 C30.7246681,2.54297931 27.5556422,0.107944828 22.9201638,0.107944828 L22.9201638,0.107944828 C21.1506897,0.107944828 19.1679914,0.46262069 16.9935345,1.25517241" id="path-21"></path>
        <path d="M16.9935345,1.25517241 C9.12284483,4.12413793 8.40732759,13.0896552 10.1961207,16.3172414 L10.1961207,16.3172414 C11.5377155,18.737931 9.06238362,21.4297379 8.71607328,21.8364138 L8.71607328,21.8364138 C6.15380603,24.8477517 -2.71932328,35.6555034 0.894396552,47.5172414 L0.894396552,47.5172414 C4.48021121,59.287531 14.367944,65.0164966 25.0484698,67.6369379 L25.0484698,67.6369379 C24.2277716,68.2595034 23.7909483,68.6758621 23.7909483,68.6758621 L23.7909483,68.6758621 C23.7909483,68.6758621 12.3426724,82.3034483 21.2866379,86.2482759 L21.2866379,86.2482759 C21.2866379,86.2482759 25.5797414,87.6827586 26.6530172,84.8137931 L26.6530172,84.8137931 C26.6530172,84.8137931 27.3685345,90.9103448 28.4418103,91.9862069 L28.4418103,91.9862069 C29.5150862,93.062069 29.1573276,99.1586207 29.1573276,99.1586207 L29.1573276,99.1586207 C29.1573276,99.1586207 29.1573276,103.82069 36.3125,103.462069 L36.3125,103.462069 C41.3450905,103.209959 41.9522069,102.248497 41.8699224,101.700166 L41.8699224,101.700166 C42.3604095,102.523917 43.9345474,104.300883 48.1185345,103.462069 L48.1185345,103.462069 C53.4849138,102.386207 54.200431,103.462069 54.5581897,93.7793103 L54.5581897,93.7793103 C54.5581897,93.7793103 55.9892241,91.6275862 57.0625,85.5310345 L57.0625,85.5310345 C57.0625,85.5310345 59.2090517,88.0413793 63.1443966,85.8896552 L63.1443966,85.8896552 C67.0797414,83.737931 64.2176724,76.2068966 64.2176724,76.2068966 L64.2176724,76.2068966 L59.2780991,68.4259034 C59.6959612,68.3588414 59.924569,68.3172414 59.924569,68.3172414 L59.924569,68.3172414 C59.924569,68.3172414 79.2435345,66.8827586 82.4633621,45.3655172 L82.4633621,45.3655172 C82.4633621,45.3655172 84.0732759,32.9931034 78.0128448,24.0261517 L78.0128448,24.0261517 C77.6493621,23.4882207 85.862069,12.5517241 76.3814655,5.91724138 L76.3814655,5.91724138 C71.7137888,2.65092414 67.6317629,3.59266207 64.6552112,5.44171034 L64.6552112,5.44171034 C63.2127284,6.33826207 62.0145948,7.56402759 61.015375,8.93933793 L61.015375,8.93933793 C60.2290216,10.0216552 58.7618534,11.2965517 56.5258621,10.4 L56.5258621,10.4 C53.1436121,9.04405517 44.6446983,7.36714483 36.7736509,8.7030069 L36.7736509,8.7030069 C36.1822759,8.80342069 33.2862198,9.21942069 32.0193966,5.91724138 L32.0193966,5.91724138 C30.7246681,2.54297931 27.5556422,0.107944828 22.9201638,0.107944828 L22.9201638,0.107944828 C21.1506897,0.107944828 19.1679914,0.46262069 16.9935345,1.25517241" id="path-23"></path>
        <path d="M16.9935345,1.25517241 C9.12284483,4.12413793 8.40732759,13.0896552 10.1961207,16.3172414 L10.1961207,16.3172414 C11.5377155,18.737931 9.06238362,21.4297379 8.71607328,21.8364138 L8.71607328,21.8364138 C6.15380603,24.8477517 -2.71932328,35.6555034 0.894396552,47.5172414 L0.894396552,47.5172414 C4.48021121,59.287531 14.367944,65.0164966 25.0484698,67.6369379 L25.0484698,67.6369379 C24.2277716,68.2595034 23.7909483,68.6758621 23.7909483,68.6758621 L23.7909483,68.6758621 C23.7909483,68.6758621 12.3426724,82.3034483 21.2866379,86.2482759 L21.2866379,86.2482759 C21.2866379,86.2482759 25.5797414,87.6827586 26.6530172,84.8137931 L26.6530172,84.8137931 C26.6530172,84.8137931 27.3685345,90.9103448 28.4418103,91.9862069 L28.4418103,91.9862069 C29.5150862,93.062069 29.1573276,99.1586207 29.1573276,99.1586207 L29.1573276,99.1586207 C29.1573276,99.1586207 29.1573276,103.82069 36.3125,103.462069 L36.3125,103.462069 C41.3450905,103.209959 41.9522069,102.248497 41.8699224,101.700166 L41.8699224,101.700166 C42.3604095,102.523917 43.9345474,104.300883 48.1185345,103.462069 L48.1185345,103.462069 C53.4849138,102.386207 54.200431,103.462069 54.5581897,93.7793103 L54.5581897,93.7793103 C54.5581897,93.7793103 55.9892241,91.6275862 57.0625,85.5310345 L57.0625,85.5310345 C57.0625,85.5310345 59.2090517,88.0413793 63.1443966,85.8896552 L63.1443966,85.8896552 C67.0797414,83.737931 64.2176724,76.2068966 64.2176724,76.2068966 L64.2176724,76.2068966 L59.2780991,68.4259034 C59.6959612,68.3588414 59.924569,68.3172414 59.924569,68.3172414 L59.924569,68.3172414 C59.924569,68.3172414 79.2435345,66.8827586 82.4633621,45.3655172 L82.4633621,45.3655172 C82.4633621,45.3655172 84.0732759,32.9931034 78.0128448,24.0261517 L78.0128448,24.0261517 C77.6493621,23.4882207 85.862069,12.5517241 76.3814655,5.91724138 L76.3814655,5.91724138 C71.7137888,2.65092414 67.6317629,3.59266207 64.6552112,5.44171034 L64.6552112,5.44171034 C63.2127284,6.33826207 62.0145948,7.56402759 61.015375,8.93933793 L61.015375,8.93933793 C60.2290216,10.0216552 58.7618534,11.2965517 56.5258621,10.4 L56.5258621,10.4 C53.1436121,9.04405517 44.6446983,7.36714483 36.7736509,8.7030069 L36.7736509,8.7030069 C36.1822759,8.80342069 33.2862198,9.21942069 32.0193966,5.91724138 L32.0193966,5.91724138 C30.7246681,2.54297931 27.5556422,0.107944828 22.9201638,0.107944828 L22.9201638,0.107944828 C21.1506897,0.107944828 19.1679914,0.46262069 16.9935345,1.25517241 L16.9935345,1.25517241 Z" id="path-25"></path>
        <path d="M16.9935345,1.25517241 C9.12284483,4.12413793 8.40732759,13.0896552 10.1961207,16.3172414 L10.1961207,16.3172414 C11.5377155,18.737931 9.06238362,21.4297379 8.71607328,21.8364138 L8.71607328,21.8364138 C6.15380603,24.8477517 -2.71932328,35.6555034 0.894396552,47.5172414 L0.894396552,47.5172414 C4.48021121,59.287531 14.367944,65.0164966 25.0484698,67.6369379 L25.0484698,67.6369379 C24.2277716,68.2595034 23.7909483,68.6758621 23.7909483,68.6758621 L23.7909483,68.6758621 C23.7909483,68.6758621 12.3426724,82.3034483 21.2866379,86.2482759 L21.2866379,86.2482759 C21.2866379,86.2482759 25.5797414,87.6827586 26.6530172,84.8137931 L26.6530172,84.8137931 C26.6530172,84.8137931 27.3685345,90.9103448 28.4418103,91.9862069 L28.4418103,91.9862069 C29.5150862,93.062069 29.1573276,99.1586207 29.1573276,99.1586207 L29.1573276,99.1586207 C29.1573276,99.1586207 29.1573276,103.82069 36.3125,103.462069 L36.3125,103.462069 C41.3450905,103.209959 41.9522069,102.248497 41.8699224,101.700166 L41.8699224,101.700166 C42.3604095,102.523917 43.9345474,104.300883 48.1185345,103.462069 L48.1185345,103.462069 C53.4849138,102.386207 54.200431,103.462069 54.5581897,93.7793103 L54.5581897,93.7793103 C54.5581897,93.7793103 55.9892241,91.6275862 57.0625,85.5310345 L57.0625,85.5310345 C57.0625,85.5310345 59.2090517,88.0413793 63.1443966,85.8896552 L63.1443966,85.8896552 C67.0797414,83.737931 64.2176724,76.2068966 64.2176724,76.2068966 L64.2176724,76.2068966 L59.2780991,68.4259034 C59.6959612,68.3588414 59.924569,68.3172414 59.924569,68.3172414 L59.924569,68.3172414 C59.924569,68.3172414 79.2435345,66.8827586 82.4633621,45.3655172 L82.4633621,45.3655172 C82.4633621,45.3655172 84.0732759,32.9931034 78.0128448,24.0261517 L78.0128448,24.0261517 C77.6493621,23.4882207 85.862069,12.5517241 76.3814655,5.91724138 L76.3814655,5.91724138 C71.7137888,2.65092414 67.6317629,3.59266207 64.6552112,5.44171034 L64.6552112,5.44171034 C63.2127284,6.33826207 62.0145948,7.56402759 61.015375,8.93933793 L61.015375,8.93933793 C60.2290216,10.0216552 58.7618534,11.2965517 56.5258621,10.4 L56.5258621,10.4 C53.1436121,9.04405517 44.6446983,7.36714483 36.7736509,8.7030069 L36.7736509,8.7030069 C36.1822759,8.80342069 33.2862198,9.21942069 32.0193966,5.91724138 L32.0193966,5.91724138 C30.7246681,2.54297931 27.5556422,0.107944828 22.9201638,0.107944828 L22.9201638,0.107944828 C21.1506897,0.107944828 19.1679914,0.46262069 16.9935345,1.25517241 L16.9935345,1.25517241 Z" id="path-27"></path>
        <path d="M16.9935345,1.25517241 C9.12284483,4.12413793 8.40732759,13.0896552 10.1961207,16.3172414 L10.1961207,16.3172414 C11.5377155,18.737931 9.06238362,21.4297379 8.71607328,21.8364138 L8.71607328,21.8364138 C6.15380603,24.8477517 -2.71932328,35.6555034 0.894396552,47.5172414 L0.894396552,47.5172414 C4.48021121,59.287531 14.367944,65.0164966 25.0484698,67.6369379 L25.0484698,67.6369379 C24.2277716,68.2595034 23.7909483,68.6758621 23.7909483,68.6758621 L23.7909483,68.6758621 C23.7909483,68.6758621 12.3426724,82.3034483 21.2866379,86.2482759 L21.2866379,86.2482759 C21.2866379,86.2482759 25.5797414,87.6827586 26.6530172,84.8137931 L26.6530172,84.8137931 C26.6530172,84.8137931 27.3685345,90.9103448 28.4418103,91.9862069 L28.4418103,91.9862069 C29.5150862,93.062069 29.1573276,99.1586207 29.1573276,99.1586207 L29.1573276,99.1586207 C29.1573276,99.1586207 29.1573276,103.82069 36.3125,103.462069 L36.3125,103.462069 C41.3450905,103.209959 41.9522069,102.248497 41.8699224,101.700166 L41.8699224,101.700166 C42.3604095,102.523917 43.9345474,104.300883 48.1185345,103.462069 L48.1185345,103.462069 C53.4849138,102.386207 54.200431,103.462069 54.5581897,93.7793103 L54.5581897,93.7793103 C54.5581897,93.7793103 55.9892241,91.6275862 57.0625,85.5310345 L57.0625,85.5310345 C57.0625,85.5310345 59.2090517,88.0413793 63.1443966,85.8896552 L63.1443966,85.8896552 C67.0797414,83.737931 64.2176724,76.2068966 64.2176724,76.2068966 L64.2176724,76.2068966 L59.2780991,68.4259034 C59.6959612,68.3588414 59.924569,68.3172414 59.924569,68.3172414 L59.924569,68.3172414 C59.924569,68.3172414 79.2435345,66.8827586 82.4633621,45.3655172 L82.4633621,45.3655172 C82.4633621,45.3655172 84.0732759,32.9931034 78.0128448,24.0261517 L78.0128448,24.0261517 C77.6493621,23.4882207 85.862069,12.5517241 76.3814655,5.91724138 L76.3814655,5.91724138 C71.7137888,2.65092414 67.6317629,3.59266207 64.6552112,5.44171034 L64.6552112,5.44171034 C63.2127284,6.33826207 62.0145948,7.56402759 61.015375,8.93933793 L61.015375,8.93933793 C60.2290216,10.0216552 58.7618534,11.2965517 56.5258621,10.4 L56.5258621,10.4 C53.1436121,9.04405517 44.6446983,7.36714483 36.7736509,8.7030069 L36.7736509,8.7030069 C36.1822759,8.80342069 33.2862198,9.21942069 32.0193966,5.91724138 L32.0193966,5.91724138 C30.7246681,2.54297931 27.5556422,0.107944828 22.9201638,0.107944828 L22.9201638,0.107944828 C21.1506897,0.107944828 19.1679914,0.46262069 16.9935345,1.25517241" id="path-29"></path>
        <path d="M16.9935345,1.25517241 C9.12284483,4.12413793 8.40732759,13.0896552 10.1961207,16.3172414 L10.1961207,16.3172414 C11.5377155,18.737931 9.06238362,21.4297379 8.71607328,21.8364138 L8.71607328,21.8364138 C6.15380603,24.8477517 -2.71932328,35.6555034 0.894396552,47.5172414 L0.894396552,47.5172414 C4.48021121,59.287531 14.367944,65.0164966 25.0484698,67.6369379 L25.0484698,67.6369379 C24.2277716,68.2595034 23.7909483,68.6758621 23.7909483,68.6758621 L23.7909483,68.6758621 C23.7909483,68.6758621 12.3426724,82.3034483 21.2866379,86.2482759 L21.2866379,86.2482759 C21.2866379,86.2482759 25.5797414,87.6827586 26.6530172,84.8137931 L26.6530172,84.8137931 C26.6530172,84.8137931 27.3685345,90.9103448 28.4418103,91.9862069 L28.4418103,91.9862069 C29.5150862,93.062069 29.1573276,99.1586207 29.1573276,99.1586207 L29.1573276,99.1586207 C29.1573276,99.1586207 29.1573276,103.82069 36.3125,103.462069 L36.3125,103.462069 C41.3450905,103.209959 41.9522069,102.248497 41.8699224,101.700166 L41.8699224,101.700166 C42.3604095,102.523917 43.9345474,104.300883 48.1185345,103.462069 L48.1185345,103.462069 C53.4849138,102.386207 54.200431,103.462069 54.5581897,93.7793103 L54.5581897,93.7793103 C54.5581897,93.7793103 55.9892241,91.6275862 57.0625,85.5310345 L57.0625,85.5310345 C57.0625,85.5310345 59.2090517,88.0413793 63.1443966,85.8896552 L63.1443966,85.8896552 C67.0797414,83.737931 64.2176724,76.2068966 64.2176724,76.2068966 L64.2176724,76.2068966 L59.2780991,68.4259034 C59.6959612,68.3588414 59.924569,68.3172414 59.924569,68.3172414 L59.924569,68.3172414 C59.924569,68.3172414 79.2435345,66.8827586 82.4633621,45.3655172 L82.4633621,45.3655172 C82.4633621,45.3655172 84.0732759,32.9931034 78.0128448,24.0261517 L78.0128448,24.0261517 C77.6493621,23.4882207 85.862069,12.5517241 76.3814655,5.91724138 L76.3814655,5.91724138 C71.7137888,2.65092414 67.6317629,3.59266207 64.6552112,5.44171034 L64.6552112,5.44171034 C63.2127284,6.33826207 62.0145948,7.56402759 61.015375,8.93933793 L61.015375,8.93933793 C60.2290216,10.0216552 58.7618534,11.2965517 56.5258621,10.4 L56.5258621,10.4 C53.1436121,9.04405517 44.6446983,7.36714483 36.7736509,8.7030069 L36.7736509,8.7030069 C36.1822759,8.80342069 33.2862198,9.21942069 32.0193966,5.91724138 L32.0193966,5.91724138 C30.7246681,2.54297931 27.5556422,0.107944828 22.9201638,0.107944828 L22.9201638,0.107944828 C21.1506897,0.107944828 19.1679914,0.46262069 16.9935345,1.25517241" id="path-31"></path>
        <path d="M16.9935345,1.25517241 C9.12284483,4.12413793 8.40732759,13.0896552 10.1961207,16.3172414 L10.1961207,16.3172414 C11.5377155,18.737931 9.06238362,21.4297379 8.71607328,21.8364138 L8.71607328,21.8364138 C6.15380603,24.8477517 -2.71932328,35.6555034 0.894396552,47.5172414 L0.894396552,47.5172414 C4.48021121,59.287531 14.367944,65.0164966 25.0484698,67.6369379 L25.0484698,67.6369379 C24.2277716,68.2595034 23.7909483,68.6758621 23.7909483,68.6758621 L23.7909483,68.6758621 C23.7909483,68.6758621 12.3426724,82.3034483 21.2866379,86.2482759 L21.2866379,86.2482759 C21.2866379,86.2482759 25.5797414,87.6827586 26.6530172,84.8137931 L26.6530172,84.8137931 C26.6530172,84.8137931 27.3685345,90.9103448 28.4418103,91.9862069 L28.4418103,91.9862069 C29.5150862,93.062069 29.1573276,99.1586207 29.1573276,99.1586207 L29.1573276,99.1586207 C29.1573276,99.1586207 29.1573276,103.82069 36.3125,103.462069 L36.3125,103.462069 C41.3450905,103.209959 41.9522069,102.248497 41.8699224,101.700166 L41.8699224,101.700166 C42.3604095,102.523917 43.9345474,104.300883 48.1185345,103.462069 L48.1185345,103.462069 C53.4849138,102.386207 54.200431,103.462069 54.5581897,93.7793103 L54.5581897,93.7793103 C54.5581897,93.7793103 55.9892241,91.6275862 57.0625,85.5310345 L57.0625,85.5310345 C57.0625,85.5310345 59.2090517,88.0413793 63.1443966,85.8896552 L63.1443966,85.8896552 C67.0797414,83.737931 64.2176724,76.2068966 64.2176724,76.2068966 L64.2176724,76.2068966 L59.2780991,68.4259034 C59.6959612,68.3588414 59.924569,68.3172414 59.924569,68.3172414 L59.924569,68.3172414 C59.924569,68.3172414 79.2435345,66.8827586 82.4633621,45.3655172 L82.4633621,45.3655172 C82.4633621,45.3655172 84.0732759,32.9931034 78.0128448,24.0261517 L78.0128448,24.0261517 C77.6493621,23.4882207 85.862069,12.5517241 76.3814655,5.91724138 L76.3814655,5.91724138 C71.7137888,2.65092414 67.6317629,3.59266207 64.6552112,5.44171034 L64.6552112,5.44171034 C63.2127284,6.33826207 62.0145948,7.56402759 61.015375,8.93933793 L61.015375,8.93933793 C60.2290216,10.0216552 58.7618534,11.2965517 56.5258621,10.4 L56.5258621,10.4 C53.1436121,9.04405517 44.6446983,7.36714483 36.7736509,8.7030069 L36.7736509,8.7030069 C36.1822759,8.80342069 33.2862198,9.21942069 32.0193966,5.91724138 L32.0193966,5.91724138 C30.7246681,2.54297931 27.5556422,0.107944828 22.9201638,0.107944828 L22.9201638,0.107944828 C21.1506897,0.107944828 19.1679914,0.46262069 16.9935345,1.25517241" id="path-33"></path>
        <path d="M16.9935345,1.25517241 C9.12284483,4.12413793 8.40732759,13.0896552 10.1961207,16.3172414 L10.1961207,16.3172414 C11.5377155,18.737931 9.06238362,21.4297379 8.71607328,21.8364138 L8.71607328,21.8364138 C6.15380603,24.8477517 -2.71932328,35.6555034 0.894396552,47.5172414 L0.894396552,47.5172414 C4.48021121,59.287531 14.367944,65.0164966 25.0484698,67.6369379 L25.0484698,67.6369379 C24.2277716,68.2595034 23.7909483,68.6758621 23.7909483,68.6758621 L23.7909483,68.6758621 C23.7909483,68.6758621 12.3426724,82.3034483 21.2866379,86.2482759 L21.2866379,86.2482759 C21.2866379,86.2482759 25.5797414,87.6827586 26.6530172,84.8137931 L26.6530172,84.8137931 C26.6530172,84.8137931 27.3685345,90.9103448 28.4418103,91.9862069 L28.4418103,91.9862069 C29.5150862,93.062069 29.1573276,99.1586207 29.1573276,99.1586207 L29.1573276,99.1586207 C29.1573276,99.1586207 29.1573276,103.82069 36.3125,103.462069 L36.3125,103.462069 C41.3450905,103.209959 41.9522069,102.248497 41.8699224,101.700166 L41.8699224,101.700166 C42.3604095,102.523917 43.9345474,104.300883 48.1185345,103.462069 L48.1185345,103.462069 C53.4849138,102.386207 54.200431,103.462069 54.5581897,93.7793103 L54.5581897,93.7793103 C54.5581897,93.7793103 55.9892241,91.6275862 57.0625,85.5310345 L57.0625,85.5310345 C57.0625,85.5310345 59.2090517,88.0413793 63.1443966,85.8896552 L63.1443966,85.8896552 C67.0797414,83.737931 64.2176724,76.2068966 64.2176724,76.2068966 L64.2176724,76.2068966 L59.2780991,68.4259034 C59.6959612,68.3588414 59.924569,68.3172414 59.924569,68.3172414 L59.924569,68.3172414 C59.924569,68.3172414 79.2435345,66.8827586 82.4633621,45.3655172 L82.4633621,45.3655172 C82.4633621,45.3655172 84.0732759,32.9931034 78.0128448,24.0261517 L78.0128448,24.0261517 C77.6493621,23.4882207 85.862069,12.5517241 76.3814655,5.91724138 L76.3814655,5.91724138 C71.7137888,2.65092414 67.6317629,3.59266207 64.6552112,5.44171034 L64.6552112,5.44171034 C63.2127284,6.33826207 62.0145948,7.56402759 61.015375,8.93933793 L61.015375,8.93933793 C60.2290216,10.0216552 58.7618534,11.2965517 56.5258621,10.4 L56.5258621,10.4 C53.1436121,9.04405517 44.6446983,7.36714483 36.7736509,8.7030069 L36.7736509,8.7030069 C36.1822759,8.80342069 33.2862198,9.21942069 32.0193966,5.91724138 L32.0193966,5.91724138 C30.7246681,2.54297931 27.5556422,0.107944828 22.9201638,0.107944828 L22.9201638,0.107944828 C21.1506897,0.107944828 19.1679914,0.46262069 16.9935345,1.25517241" id="path-35"></path>
        <path d="M16.9935345,1.25517241 C9.12284483,4.12413793 8.40732759,13.0896552 10.1961207,16.3172414 L10.1961207,16.3172414 C11.5377155,18.737931 9.06238362,21.4297379 8.71607328,21.8364138 L8.71607328,21.8364138 C6.15380603,24.8477517 -2.71932328,35.6555034 0.894396552,47.5172414 L0.894396552,47.5172414 C4.48021121,59.287531 14.367944,65.0164966 25.0484698,67.6369379 L25.0484698,67.6369379 C24.2277716,68.2595034 23.7909483,68.6758621 23.7909483,68.6758621 L23.7909483,68.6758621 C23.7909483,68.6758621 12.3426724,82.3034483 21.2866379,86.2482759 L21.2866379,86.2482759 C21.2866379,86.2482759 25.5797414,87.6827586 26.6530172,84.8137931 L26.6530172,84.8137931 C26.6530172,84.8137931 27.3685345,90.9103448 28.4418103,91.9862069 L28.4418103,91.9862069 C29.5150862,93.062069 29.1573276,99.1586207 29.1573276,99.1586207 L29.1573276,99.1586207 C29.1573276,99.1586207 29.1573276,103.82069 36.3125,103.462069 L36.3125,103.462069 C41.3450905,103.209959 41.9522069,102.248497 41.8699224,101.700166 L41.8699224,101.700166 C42.3604095,102.523917 43.9345474,104.300883 48.1185345,103.462069 L48.1185345,103.462069 C53.4849138,102.386207 54.200431,103.462069 54.5581897,93.7793103 L54.5581897,93.7793103 C54.5581897,93.7793103 55.9892241,91.6275862 57.0625,85.5310345 L57.0625,85.5310345 C57.0625,85.5310345 59.2090517,88.0413793 63.1443966,85.8896552 L63.1443966,85.8896552 C67.0797414,83.737931 64.2176724,76.2068966 64.2176724,76.2068966 L64.2176724,76.2068966 L59.2780991,68.4259034 C59.6959612,68.3588414 59.924569,68.3172414 59.924569,68.3172414 L59.924569,68.3172414 C59.924569,68.3172414 79.2435345,66.8827586 82.4633621,45.3655172 L82.4633621,45.3655172 C82.4633621,45.3655172 84.0732759,32.9931034 78.0128448,24.0261517 L78.0128448,24.0261517 C77.6493621,23.4882207 85.862069,12.5517241 76.3814655,5.91724138 L76.3814655,5.91724138 C71.7137888,2.65092414 67.6317629,3.59266207 64.6552112,5.44171034 L64.6552112,5.44171034 C63.2127284,6.33826207 62.0145948,7.56402759 61.015375,8.93933793 L61.015375,8.93933793 C60.2290216,10.0216552 58.7618534,11.2965517 56.5258621,10.4 L56.5258621,10.4 C53.1436121,9.04405517 44.6446983,7.36714483 36.7736509,8.7030069 L36.7736509,8.7030069 C36.1822759,8.80342069 33.2862198,9.21942069 32.0193966,5.91724138 L32.0193966,5.91724138 C30.7246681,2.54297931 27.5556422,0.107944828 22.9201638,0.107944828 L22.9201638,0.107944828 C21.1506897,0.107944828 19.1679914,0.46262069 16.9935345,1.25517241" id="path-37"></path>
        <path d="M0,26.2349615 L0.205585714,33.8476154 C0.205585714,40.1206538 7.13588571,42.5451923 18.3857143,42.724359 L18.3857143,42.724359 C35.6939143,43 43.2955714,27.2421538 35.2977857,25.0601795 L35.2977857,25.0601795 C33.8430857,24.6632564 32.1014571,26.2349615 32.1014571,26.2349615 L32.1014571,26.2349615 C32.1014571,11.8977692 24.9154286,0.275641026 16.0507286,0.275641026 L16.0507286,0.275641026 C7.18658571,0.275641026 0,11.8977692 0,26.2349615" id="path-39"></path>
        <path d="M0,26.2349615 L0.205585714,33.8476154 C0.205585714,40.1206538 7.13588571,42.5451923 18.3857143,42.724359 L18.3857143,42.724359 C35.6939143,43 43.2955714,27.2421538 35.2977857,25.0601795 L35.2977857,25.0601795 C33.8430857,24.6632564 32.1014571,26.2349615 32.1014571,26.2349615 L32.1014571,26.2349615 C32.1014571,11.8977692 24.9154286,0.275641026 16.0507286,0.275641026 L16.0507286,0.275641026 C7.18658571,0.275641026 0,11.8977692 0,26.2349615" id="path-41"></path>
        <path d="M0,26.2349615 L0.205585714,33.8476154 C0.205585714,40.1206538 7.13588571,42.5451923 18.3857143,42.724359 L18.3857143,42.724359 C35.6939143,43 43.2955714,27.2421538 35.2977857,25.0601795 L35.2977857,25.0601795 C33.8430857,24.6632564 32.1014571,26.2349615 32.1014571,26.2349615 L32.1014571,26.2349615 C32.1014571,11.8977692 24.9154286,0.275641026 16.0507286,0.275641026 L16.0507286,0.275641026 C7.18658571,0.275641026 0,11.8977692 0,26.2349615" id="path-43"></path>
        <path d="M0,26.2349615 L0.205585714,33.8476154 C0.205585714,40.1206538 7.13588571,42.5451923 18.3857143,42.724359 L18.3857143,42.724359 C35.6939143,43 43.2955714,27.2421538 35.2977857,25.0601795 L35.2977857,25.0601795 C33.8430857,24.6632564 32.1014571,26.2349615 32.1014571,26.2349615 L32.1014571,26.2349615 C32.1014571,11.8977692 24.9154286,0.275641026 16.0507286,0.275641026 L16.0507286,0.275641026 C7.18658571,0.275641026 0,11.8977692 0,26.2349615" id="path-45"></path>
        <path d="M0,26.2349615 L0.205585714,33.8476154 C0.205585714,40.1206538 7.13588571,42.5451923 18.3857143,42.724359 L18.3857143,42.724359 C35.6939143,43 43.2955714,27.2421538 35.2977857,25.0601795 L35.2977857,25.0601795 C33.8430857,24.6632564 32.1014571,26.2349615 32.1014571,26.2349615 L32.1014571,26.2349615 C32.1014571,11.8977692 24.9154286,0.275641026 16.0507286,0.275641026 L16.0507286,0.275641026 C7.18658571,0.275641026 0,11.8977692 0,26.2349615" id="path-47"></path>
    </defs>
    <g id="Page-1" stroke="none" stroke-width="1" fill="none" fill-rule="evenodd">
        <g id="주식버튼" transform="translate(-954.000000, -269.000000)">
            <g id="Group-9" transform="translate(901.000000, 64.000000)">
                <g id="Group-6" transform="translate(23.000000, 160.000000)">
                    <g id="Group-37" transform="translate(0.000000, 39.000000)">
                        <g id="trending_up-24px-(1)" transform="translate(114.000000, 0.000000)">
                            <polygon id="Path" points="0 0 24 0 24 24 0 24"></polygon>
                            <path d="M16.85,6.85 L18.29,8.29 L13.41,13.17 L10.12,9.88 C9.73,9.49 9.1,9.49 8.71,9.88 L2.71,15.89 C2.32,16.28 2.32,16.91 2.71,17.3 C3.1,17.69 3.73,17.69 4.12,17.3 L9.41,12 L12.7,15.29 C13.09,15.68 13.72,15.68 14.11,15.29 L19.7,9.71 L21.14,11.15 C21.45,11.46 21.99,11.24 21.99,10.8 L21.99,6.5 C22,6.22 21.78,6 21.5,6 L17.21,6 C16.76,6 16.54,6.54 16.85,6.85 L16.85,6.85 Z" id="Path" fill="#009EE8" fill-rule="nonzero"></path>
                        </g>
                        <g id="help_outline-24px" transform="translate(58.000000, 59.000000)">
                            <polygon id="Path" points="0 0 16 0 16 15 0 15"></polygon>
                            <path d="M7.27521172,9.6671029 L8.63284021,9.6671029 L8.63284021,11 L7.27521172,11 L7.27521172,9.6671029 Z M8.36810266,3.02927534 C6.96974531,2.82934077 5.73430339,3.67573043 5.36095556,4.88866679 C5.23876899,5.27520695 5.53744726,5.6684116 5.95152395,5.6684116 L6.0872868,5.6684116 C6.36560064,5.6684116 6.58960934,5.47514152 6.68464333,5.22189107 C6.90186389,4.62875186 7.54673742,4.22221824 8.24591609,4.36883692 C8.89078962,4.50212663 9.36595959,5.12192378 9.31165446,5.76837888 C9.24377303,6.66141994 8.21197538,6.85469002 7.64855956,7.6877507 C7.64855956,7.69441519 7.64177142,7.69441519 7.64177142,7.70107967 C7.63498327,7.71440865 7.62819513,7.72107313 7.62140699,7.7344021 C7.56031371,7.83436938 7.49922042,7.94766564 7.45170343,8.06762638 C7.44491528,8.08761983 7.431339,8.10094881 7.42455086,8.12094226 C7.41776271,8.13427123 7.41776271,8.1476002 7.41097457,8.16759366 C7.32951686,8.39418617 7.27521172,8.66743007 7.27521172,9.00065435 L8.63284021,9.00065435 C8.63284021,8.72074596 8.70750978,8.48748896 8.8229082,8.2875544 C8.83648448,8.26756094 8.84327263,8.24756749 8.85684891,8.22757403 C8.91115405,8.13427123 8.97903548,8.04763292 9.0469169,7.9676591 C9.05370504,7.96099461 9.06049318,7.94766564 9.06728133,7.94100115 C9.13516275,7.86102733 9.20983232,7.78771799 9.29129003,7.71440865 C9.9429517,7.10794046 10.8254102,6.61476854 10.6421304,5.34185181 C10.479215,4.18223133 9.54923944,3.20255196 8.36810266,3.02927534 L8.36810266,3.02927534 Z" id="Shape" fill="#AABACC" fill-rule="nonzero"></path>
                        </g>
                        <path d="M130.639907,104.196242 L155.157634,114.359476 C156.178011,114.782449 156.662302,115.952514 156.23933,116.972891 C155.929643,117.719978 155.200505,118.207031 154.391775,118.207031 L36.7572935,118.207031 C35.652724,118.207031 34.7572935,117.311601 34.7572935,116.207031 C34.7572935,115.186448 35.5257344,114.329572 36.5402921,114.218839 L129.657046,104.055604 C129.99128,104.019124 130.329316,104.067494 130.639907,104.196242 Z" id="Rectangle" fill="url(#linearGradient-1)" opacity="0.400000006" filter="url(#filter-2)"></path>
                        <g id="Group-60" transform="translate(79.000000, 14.000000)">
                            <path d="M78.3341062,23.7856731 C77.9689346,23.2507214 86.2198008,12.3747967 76.6951469,5.77705909 C72.0057824,2.52883237 67.9047899,3.46499784 64.914408,5.30416179 C63.4648635,6.19574795 62.2615223,7.4150812 61.2576597,8.78277437 C60.468012,9.85874056 58.9936675,11.1265761 56.7472868,10.2349899 C53.3493216,8.886555 44.8109187,7.21893224 36.9032994,8.54739563 C36.3091766,8.64760991 33.3996644,9.06094926 32.126955,5.77705909 C30.3298505,1.14081102 24.938537,-1.71226471 17.0312771,1.14081102 C9.12401728,3.99388676 8.40517548,12.9097484 10.20228,16.1194586 C11.5501084,18.5267413 9.06327515,21.2036396 8.71535572,21.6084197 C6.14118321,24.6027227 -2.77317401,35.3506156 0.857336528,47.1466572 C4.45981223,58.851757 14.3934871,64.5489926 25.1236387,67.1549207 C24.2987678,67.7740381 23.8602743,68.1880907 23.8602743,68.1880907 C23.8602743,68.1880907 12.3588054,81.7402005 21.344328,85.6631796 C21.344328,85.6631796 25.6573788,87.0897175 26.7356415,84.2366417 C26.7356415,84.2366417 27.4544833,90.2994277 28.532746,91.3693311 C29.6110087,92.4392345 29.2515878,98.5020204 29.2515878,98.5020204 C29.2515878,98.5020204 29.2515878,103.138268 36.4400059,102.781634 C41.4959797,102.53092 42.105917,101.574783 42.0232502,101.029489 C42.5160162,101.848678 44.0974682,103.615802 48.3008956,102.781634 C53.6922092,101.711731 54.411051,102.781634 54.7704719,93.1525034 C54.7704719,93.1525034 56.2081555,91.0126966 57.2864182,84.9499107 C57.2864182,84.9499107 59.4429436,87.4463519 63.3965735,85.3065451 C67.3502035,83.1667383 64.4748362,75.6774145 64.4748362,75.6774145 L59.5123118,67.9395165 C59.9321155,67.8728259 60.1617854,67.8314563 60.1617854,67.8314563 C60.1617854,67.8314563 79.5705141,66.4049184 82.8053023,45.0068504 C82.8053023,45.0068504 84.4226963,32.7029613 78.3341062,23.7856731" id="Fill-1" fill="#FFFFFF"></path>
                            <g id="Group-57">
                                <g id="Group-5">
                                    <mask id="mask-4" fill="white">
                                        <use xlink:href="#path-3"></use>
                                    </mask>
                                    <g id="Clip-4"></g>
                                    <path d="M38.8168103,41.2413793 C38.8168103,41.9345931 38.2562026,42.4965517 37.5646552,42.4965517 C36.8731078,42.4965517 36.3125,41.9345931 36.3125,41.2413793 C36.3125,40.5481655 36.8731078,39.9862069 37.5646552,39.9862069 C38.2562026,39.9862069 38.8168103,40.5481655 38.8168103,41.2413793" id="Fill-3" fill="#000000" mask="url(#mask-4)"></path>
                                </g>
                                <g id="Group-8">
                                    <mask id="mask-6" fill="white">
                                        <use xlink:href="#path-5"></use>
                                    </mask>
                                    <g id="Clip-7"></g>
                                    <path d="M49.1918103,41.2413793 C49.1918103,41.9345931 48.6312026,42.4965517 47.9396552,42.4965517 C47.2481078,42.4965517 46.6875,41.9345931 46.6875,41.2413793 C46.6875,40.5481655 47.2481078,39.9862069 47.9396552,39.9862069 C48.6312026,39.9862069 49.1918103,40.5481655 49.1918103,41.2413793" id="Fill-6" fill="#000000" mask="url(#mask-6)"></path>
                                </g>
                                <g id="Group-11">
                                    <mask id="mask-8" fill="white">
                                        <use xlink:href="#path-7"></use>
                                    </mask>
                                    <g id="Clip-10"></g>
                                    <path d="M41.3211207,44.2896552 C39.890444,44.2577379 38.1721293,45.1944552 38.1012931,46.4413793 C38.0272371,47.7438897 39.7781078,48.9172966 41.3211207,48.9517241 C42.7517974,48.9836414 44.4701121,48.0469241 44.5409483,46.8 C44.6150043,45.4974897 42.8641336,44.3240828 41.3211207,44.2896552" id="Fill-9" fill="#000000" mask="url(#mask-8)"></path>
                                </g>
                                <g id="Group-14">
                                    <mask id="mask-10" fill="white">
                                        <use xlink:href="#path-9"></use>
                                    </mask>
                                    <g id="Clip-13"></g>
                                    <path d="M67.5749866,44.7768055 C65.9951246,42.8499366 63.3709651,42.1477572 60.9954478,42.8897434 C58.8324392,43.5661021 55.9310168,45.0091917 54.3794177,48.0553159 C53.9912496,48.8166676 52.671478,51.4069848 53.6639004,54.1518676 C54.8613185,57.4644469 58.9093573,59.5702676 62.6078659,58.8139366 C66.7453444,57.9672331 68.6214306,53.9108745 69.0475211,51.2829021 C69.1788185,50.4709848 69.6782496,47.3911503 67.6164866,44.8277297 C67.6025341,44.8105159 67.5889392,44.7936607 67.5749866,44.7768055" id="Fill-12" fill="#E0F5FC" mask="url(#mask-10)"></path>
                                </g>
                                <g id="Group-17">
                                    <mask id="mask-12" fill="white">
                                        <use xlink:href="#path-11"></use>
                                    </mask>
                                    <g id="Clip-16"></g>
                                    <path d="M26.7905039,44.0595641 C25.2106418,42.1326952 22.5864823,41.4305159 20.2109651,42.1725021 C18.0479565,42.8488607 15.1465341,44.2919503 13.5949349,47.3380745 C13.2067668,48.0994262 11.8869953,50.6897434 12.8794177,53.4346262 C14.0768358,56.7472055 18.1248746,58.8530262 21.8233832,58.0966952 C25.9608616,57.2499917 27.8369478,53.1936331 28.2630384,50.5656607 C28.3943358,49.7537434 28.8937668,46.673909 26.8320039,44.1104883 C26.8180513,44.0932745 26.8044565,44.0764193 26.7905039,44.0595641" id="Fill-15" fill="#E0F5FC" mask="url(#mask-12)"></path>
                                </g>
                                <g id="Group-20">
                                    <mask id="mask-14" fill="white">
                                        <use xlink:href="#path-13"></use>
                                    </mask>
                                    <g id="Clip-19"></g>
                                    <path d="M41.5,67.7793103 C41.5,67.7793103 39.3534483,68.4965517 41.1422414,70.2896552 C42.9310345,72.0827586 44.7198276,70.2896552 44.7198276,70.2896552 C44.7198276,70.2896552 45.4353448,67.4206897 41.5,67.7793103" id="Fill-18" fill="#43C1FF" mask="url(#mask-14)"></path>
                                </g>
                                <g id="Group-23">
                                    <mask id="mask-16" fill="white">
                                        <use xlink:href="#path-15"></use>
                                    </mask>
                                    <g id="Clip-22"></g>
                                    <path d="M41.4566754,69.5906317 C41.4566754,69.5906317 36.5049384,68.5839834 35.9547056,74.6217214 C35.9547056,74.6217214 42.5571409,76.1311559 41.4566754,69.5906317" id="Fill-21" fill="#43C1FF" mask="url(#mask-16)"></path>
                                </g>
                                <g id="Group-26">
                                    <mask id="mask-18" fill="white">
                                        <use xlink:href="#path-17"></use>
                                    </mask>
                                    <g id="Clip-25"></g>
                                    <path d="M-2.86206897,41.2413793 C-2.86206897,41.2413793 3.21982759,69.5724138 40.4267241,65.2689655 C40.4267241,65.2689655 72.2672414,67.7793103 76.5603448,49.1310345 C80.8534483,30.4827586 76.5603448,26.1793103 76.5603448,26.1793103 L74.7715517,23.6689655 C74.7715517,23.6689655 81.2112069,13.9862069 75.8448276,8.24827586 C70.4784483,2.51034483 66.5431034,2.51034483 66.5431034,2.51034483 L70.8362069,0 L87.2931034,10.7586207 L85.862069,32.9931034 L83.7155172,55.5862069 L70.4784483,69.2137931 L4.29310345,68.4965517 L-2.86206897,41.2413793 Z" id="Fill-24" fill="#E7F3FA" mask="url(#mask-18)"></path>
                                </g>
                                <g id="Group-29">
                                    <mask id="mask-20" fill="white">
                                        <use xlink:href="#path-19"></use>
                                    </mask>
                                    <g id="Clip-28"></g>
                                    <path d="M49.549569,74.6179559 C49.549569,74.6179559 42.7160216,76.1661214 43.855125,69.4574041 C43.855125,69.4574041 48.9800172,68.4252938 49.549569,74.6179559" id="Fill-27" fill="#43C1FF" mask="url(#mask-20)"></path>
                                </g>
                                <g id="Group-32">
                                    <mask id="mask-22" fill="white">
                                        <use xlink:href="#path-21"></use>
                                    </mask>
                                    <g id="Clip-31"></g>
                                    <path d="M19.3528453,68.1221876 C19.3528453,68.1221876 34.125772,66.5152083 42.5749573,69.349029 L19.2616168,69.8536083" id="Fill-30" fill="#43C1FF" mask="url(#mask-22)"></path>
                                </g>
                                <g id="Group-35">
                                    <mask id="mask-24" fill="white">
                                        <use xlink:href="#path-23"></use>
                                    </mask>
                                    <g id="Clip-34"></g>
                                    <path d="M62.2858116,69.6217959 L42.8552254,69.5335752 C49.4276091,66.7417131 61.9405746,68.0022648 61.9405746,68.0022648" id="Fill-33" fill="#43C1FF" mask="url(#mask-24)"></path>
                                </g>
                                <g id="Group-38">
                                    <mask id="mask-26" fill="white">
                                        <use xlink:href="#path-25"></use>
                                    </mask>
                                    <g id="Clip-37"></g>
                                    <path d="M37.9224138,91.4482759 C37.9224138,91.4482759 41.8577586,93.6 46.5086207,91.4482759 L42.9310345,93.9586207 L42.5732759,106.510345 L41.1422414,93.9586207 L37.9224138,91.4482759 Z" id="Fill-36" fill="#E7F3FA" mask="url(#mask-26)"></path>
                                </g>
                                <g id="Group-41">
                                    <mask id="mask-28" fill="white">
                                        <use xlink:href="#path-27"></use>
                                    </mask>
                                    <g id="Clip-40"></g>
                                    <polygon id="Fill-39" fill="#E7F3FA" mask="url(#mask-28)" points="55.6314655 77.6413793 58.4935345 91.6275862 61.3556034 89.4758621"></polygon>
                                </g>
                                <g id="Group-44">
                                    <mask id="mask-30" fill="white">
                                        <use xlink:href="#path-29"></use>
                                    </mask>
                                    <g id="Clip-43"></g>
                                    <path d="M17.3512931,15.9586207 C17.3512931,15.9586207 22.3599138,12.3724138 29.5150862,10.5793103" id="Fill-42" fill="#E7F3FA" mask="url(#mask-30)"></path>
                                </g>
                                <g id="Group-47">
                                    <mask id="mask-32" fill="white">
                                        <use xlink:href="#path-31"></use>
                                    </mask>
                                    <g id="Clip-46"></g>
                                    <path d="M62.4267685,13.1723172 C62.4267685,13.1723172 67.5387815,16.6082621 71.7327858,22.6897517" id="Fill-45" fill="#E7F3FA" mask="url(#mask-32)"></path>
                                </g>
                                <g id="Group-50">
                                    <mask id="mask-34" fill="white">
                                        <use xlink:href="#path-33"></use>
                                    </mask>
                                    <g id="Clip-49"></g>
                                    <path d="M44.5287129,47.6422566 C45.4864328,49.1595807 45.8907,50.8407945 45.2292043,52.1372083 C43.9945793,54.5578979 39.5984414,54.5553876 36.9016569,53.5333186 C36.3603681,53.3281876 35.1393379,52.8612634 34.103269,51.8567669 C34.2746353,53.8008497 35.8577172,55.3167393 35.9546698,55.4067531 C37.9037388,57.2120497 40.4477603,56.9359117 41.3210491,56.8412359 C44.1874112,56.5303117 48.109519,54.5396083 48.1184783,51.8205462 C48.1241871,50.0826703 46.5285836,48.5449048 44.5287129,47.6422566" id="Fill-48" fill="#E7F3FA" mask="url(#mask-34)"></path>
                                </g>
                                <g id="Group-53">
                                    <mask id="mask-36" fill="white">
                                        <use xlink:href="#path-35"></use>
                                    </mask>
                                    <g id="Clip-52"></g>
                                    <path d="M20.2841267,5.72742345 L18.9346612,8.81945103 C18.769019,9.19923034 19.1192647,9.60088552 19.5167345,9.48684414 L20.5206052,9.19958897 L19.5843509,11.5453269 C19.474519,11.8211062 19.6322905,12.1305959 19.9195707,12.2026786 L20.1674974,12.26472 C20.3674845,12.3149269 20.5728379,12.2044717 20.6415276,12.0093821 L21.9788293,8.21194759 C22.0868724,7.90460966 21.8038853,7.60300966 21.4915621,7.69266483 L20.2343983,8.05272 L21.4167905,5.68259586 C21.5305578,5.45415448 21.3649155,5.18554759 21.1101914,5.18554759 C20.752075,5.18554759 20.4275879,5.39856828 20.2841267,5.72742345" id="Fill-51" fill="#E7F3FA" mask="url(#mask-36)"></path>
                                </g>
                                <g id="Group-56">
                                    <mask id="mask-38" fill="white">
                                        <use xlink:href="#path-37"></use>
                                    </mask>
                                    <g id="Clip-55"></g>
                                    <path d="M72.5850026,8.75819862 L69.6370716,10.3892055 C69.2753776,10.5893159 69.3093647,11.1218676 69.6939552,11.2739228 L70.6652698,11.6580055 L68.4986836,12.9486814 C68.2439595,13.1003779 68.1813517,13.4425021 68.3655974,13.6748883 L68.5244422,13.8753572 C68.6528776,14.0370952 68.8829164,14.0743917 69.0560716,13.9617848 L72.4218647,11.76344 C72.694119,11.5855641 72.652619,11.1738676 72.3503129,11.0540883 L71.1342914,10.5735366 L73.5108819,9.41339862 C73.7398474,9.30186759 73.7713302,8.98771586 73.5691966,8.83207448 C73.2851362,8.61367448 72.8983991,8.58462621 72.5850026,8.75819862" id="Fill-54" fill="#E7F3FA" mask="url(#mask-38)"></path>
                                </g>
                            </g>
                            <path d="M78.3341062,23.7856731 C77.9689346,23.2507214 86.2198008,12.3747967 76.6951469,5.77705909 C72.0057824,2.52883237 67.9047899,3.46499784 64.914408,5.30416179 C63.4648635,6.19574795 62.2615223,7.4150812 61.2576597,8.78277437 C60.468012,9.85874056 58.9936675,11.1265761 56.7472868,10.2349899 C53.3493216,8.886555 44.8109187,7.21893224 36.9032994,8.54739563 C36.3091766,8.64760991 33.3996644,9.06094926 32.126955,5.77705909 C30.3298505,1.14081102 24.938537,-1.71226471 17.0312771,1.14081102 C9.12401728,3.99388676 8.40517548,12.9097484 10.20228,16.1194586 C11.5501084,18.5267413 9.06327515,21.2036396 8.71535572,21.6084197 C6.14118321,24.6027227 -2.77317401,35.3506156 0.857336528,47.1466572 C4.45981223,58.851757 14.3934871,64.5489926 25.1236387,67.1549207 C24.2987678,67.7740381 23.8602743,68.1880907 23.8602743,68.1880907 C23.8602743,68.1880907 12.3588054,81.7402005 21.344328,85.6631796 C21.344328,85.6631796 25.6573788,87.0897175 26.7356415,84.2366417 C26.7356415,84.2366417 27.4544833,90.2994277 28.532746,91.3693311 C29.6110087,92.4392345 29.2515878,98.5020204 29.2515878,98.5020204 C29.2515878,98.5020204 29.2515878,103.138268 36.4400059,102.781634 C41.4959797,102.53092 41.7557869,100.58485 42.0232502,101.029489 C42.5160162,101.848678 44.5432195,103 48.3008956,102.781634 C53.7547335,102.464701 54.411051,102.781634 54.7704719,93.1525034 C54.7704719,93.1525034 56.2081555,91.0126966 57.2864182,84.9499107 C57.2864182,84.9499107 59.4429436,87.4463519 63.3965735,85.3065451 C67.3502035,83.1667383 64.4748362,75.6774145 64.4748362,75.6774145 L59.5123118,67.9395165 C59.9321155,67.8728259 60.1617854,67.8314563 60.1617854,67.8314563 C60.1617854,67.8314563 79.5705141,66.4049184 82.8053023,45.0068504 C82.8053023,45.0068504 84.4226963,32.7029613 78.3341062,23.7856731 Z" id="Stroke-58" stroke="#000000" stroke-width="2"></path>
                        </g>
                        <g id="Group-21" transform="translate(50.000000, 75.000000)">
                            <path d="M34.8572129,25.5204815 C33.4201197,25.1277873 31.7007796,26.6827473 31.7007796,26.6827473 C31.7007796,12.4983049 24.603894,1 15.8503898,1 C7.09633544,1 0,12.4983049 0,26.6827473 L0.203019676,34.2142951 C0.203019676,40.4199546 7.04681845,42.8192072 18.1562312,42.996465 C35.2478469,43.2691693 42.7551734,27.6792089 34.8572129,25.5204815" id="Fill-1" fill="#2C67C6"></path>
                            <g id="Group-18">
                                <g id="Group-5">
                                    <mask id="mask-40" fill="white">
                                        <use xlink:href="#path-39"></use>
                                    </mask>
                                    <g id="Clip-4"></g>
                                    <path d="M13.2824529,8.40164872 C13.2824529,9.08303333 12.7236386,9.63596923 12.0344529,9.63596923 C11.3452671,9.63596923 10.78701,9.08303333 10.78701,8.40164872 C10.78701,7.71971282 11.3452671,7.16677692 12.0344529,7.16677692 C12.7236386,7.16677692 13.2824529,7.71971282 13.2824529,8.40164872" id="Fill-3" fill="#000000" mask="url(#mask-40)"></path>
                                </g>
                                <g id="Group-8">
                                    <mask id="mask-42" fill="white">
                                        <use xlink:href="#path-41"></use>
                                    </mask>
                                    <g id="Clip-7"></g>
                                    <path d="M15.7781743,11.4003474 C14.3524457,11.3683731 12.6397886,12.2901167 12.5695886,13.5167192 C12.4954886,14.79845 14.24046,15.9528346 15.7781743,15.9864628 C17.2039029,16.0178859 18.91656,15.0961423 18.9873171,13.8695397 C19.06086,12.5883603 17.3158886,11.4339756 15.7781743,11.4003474" id="Fill-6" fill="#FCEE21" mask="url(#mask-42)"></path>
                                </g>
                                <g id="Group-11">
                                    <mask id="mask-44" fill="white">
                                        <use xlink:href="#path-43"></use>
                                    </mask>
                                    <g id="Clip-10"></g>
                                    <path d="M20.4132686,8.40164872 C20.4132686,9.08303333 19.8544543,9.63596923 19.1652686,9.63596923 C18.4760829,9.63596923 17.9178257,9.08303333 17.9178257,8.40164872 C17.9178257,7.71971282 18.4760829,7.16677692 19.1652686,7.16677692 C19.8544543,7.16677692 20.4132686,7.71971282 20.4132686,8.40164872" id="Fill-9" fill="#000000" mask="url(#mask-44)"></path>
                                </g>
                                <g id="Group-14">
                                    <mask id="mask-46" fill="white">
                                        <use xlink:href="#path-45"></use>
                                    </mask>
                                    <g id="Clip-13"></g>
                                    <path d="M4.90191,44.6538462 L4.90191,44.6538462 C3.91521,33.0096667 7.36225286,23.4228718 14.1070243,20.6686667 C14.9187814,20.3373462 17.21031,19.4012692 19.6299814,20.0975385 C25.1696529,21.6918462 28.3085957,30.9566923 26.9937386,43.5115897" id="Fill-12" fill="#FFFFFF" mask="url(#mask-46)"></path>
                                </g>
                                <g id="Group-17">
                                    <mask id="mask-48" fill="white">
                                        <use xlink:href="#path-47"></use>
                                    </mask>
                                    <g id="Clip-16"></g>
                                    <path d="M19.2214286,-3.85897436 C19.2214286,-3.85897436 30.9214286,17.6410256 30.9214286,30.8717949 C30.9214286,30.8717949 37.05,23.1538462 38.7214286,23.7051282 C40.3928571,24.2564103 19.2214286,-3.85897436 19.2214286,-3.85897436" id="Fill-15" fill="#145BAF" mask="url(#mask-48)"></path>
                                </g>
                            </g>
                            <path d="M34.8572129,25.5204815 C33.4201197,25.1277873 31.7007796,26.6827473 31.7007796,26.6827473 C31.7007796,12.4983049 24.603894,1 15.8503898,1 C7.09633544,1 0,12.4983049 0,26.6827473 L0.203019676,34.2142951 C0.203019676,40.4199546 7.04681845,42.8192072 18.1562312,42.996465 C35.2478469,43.2691693 42.7551734,27.6792089 34.8572129,25.5204815 Z" id="Stroke-19" stroke="#000000" stroke-width="2"></path>
                        </g>
                    </g>
                </g>
            </g>
        </g>
    </g>
</svg>