<?xml version="1.0" encoding="UTF-8"?>
<svg width="42px" height="43px" viewBox="0 0 42 43" version="1.1" xmlns="http://www.w3.org/2000/svg" xmlns:xlink="http://www.w3.org/1999/xlink">
    <!-- Generator: Sketch 60.1 (88133) - https://sketch.com -->
    <title>Group</title>
    <desc>Created with Sketch.</desc>
    <defs>
        <linearGradient x1="5.67210478%" y1="55.3676928%" x2="101.846278%" y2="55.3676928%" id="linearGradient-1">
            <stop stop-color="#009EE8" offset="0%"></stop>
            <stop stop-color="#6556A8" offset="100%"></stop>
        </linearGradient>
        <linearGradient x1="5.67210478%" y1="55.3676928%" x2="101.846278%" y2="55.3676928%" id="linearGradient-2">
            <stop stop-color="#009EE8" offset="0%"></stop>
            <stop stop-color="#6556A8" offset="100%"></stop>
        </linearGradient>
    </defs>
    <g id="Page-1" stroke="none" stroke-width="1" fill="none" fill-rule="evenodd">
        <g id="주식버튼" transform="translate(-1435.000000, -222.000000)">
            <g id="Group-15" transform="translate(1307.000000, 64.000000)">
                <g id="Group-6" transform="translate(23.000000, 160.000000)">
                    <g id="Group" transform="translate(107.000000, 0.000000)">
                        <circle id="Oval" stroke="url(#linearGradient-1)" stroke-width="1.8" fill="#FFFFFF" cx="19" cy="19" r="19.9"></circle>
                        <g id="Group-5">
                            <ellipse id="Oval" stroke="url(#linearGradient-2)" stroke-width="1.8" fill="#FFFFFF" cx="19" cy="19.5" rx="19.9" ry="20.4"></ellipse>
                            <g id="Apple_logo_black" transform="translate(11.000000, 10.000000)" fill="#000000" fill-rule="nonzero">
                                <path d="M15.4593295,14.6358042 C15.1758316,15.2919466 14.8402623,15.895922 14.4514647,16.451209 C13.9214964,17.2082062 13.4875708,17.7321932 13.1531586,18.0231684 C12.6347621,18.5007843 12.0793371,18.7453885 11.4845693,18.7593 C11.0575865,18.7593 10.5426611,18.6375769 9.94326499,18.3906552 C9.34190193,18.1448899 8.78925388,18.0231684 8.28393273,18.0231684 C7.75396472,18.0231684 7.18557963,18.1448899 6.57762081,18.3906552 C5.96873558,18.6375769 5.47822618,18.7662557 5.1031984,18.7790076 C4.53284631,18.803352 3.9643461,18.5517921 3.39688648,18.0231684 C3.03470344,17.7066893 2.58168502,17.1641542 2.03898816,16.3955631 C1.45671783,15.5748066 0.978010892,14.6230523 0.60298327,13.5379828 C0.201341583,12.3659685 0,11.2310507 0,10.1323024 C0,8.87369138 0.271464,7.78815811 0.815201913,6.87848486 C1.24253202,6.14780226 1.81103264,5.57141687 2.5225549,5.14828589 C3.2340778,4.72515555 4.00287861,4.50953281 4.83080923,4.49573728 C5.28382734,4.49573728 5.87790114,4.63612396 6.61615332,4.91202847 C7.35232292,5.18886031 7.82501286,5.32924699 8.0322555,5.32924699 C8.18719589,5.32924699 8.71230398,5.16509515 9.60248834,4.83783586 C10.4443048,4.53434093 11.1547857,4.40867646 11.7368248,4.45817691 C13.3140006,4.58569587 14.4989072,5.20856766 15.2869166,6.33073349 C13.8763686,7.18696476 13.1786158,8.38622146 13.1925013,9.92467833 C13.2052298,11.1230075 13.6391554,12.1202048 14.4919642,12.9119815 C14.8784472,13.279467 15.3100591,13.5634863 15.7902692,13.7651982 C15.6861284,14.0677655 15.5762005,14.3575812 15.4593295,14.6358042 Z M11.8421245,0.375719303 C11.8421245,1.31496466 11.4996119,2.19193538 10.8169024,3.00365038 C9.99302137,3.96862075 8.99649684,4.52622563 7.91584778,4.43823781 C7.90207803,4.32555734 7.89409369,4.20696505 7.89409369,4.0823445 C7.89409369,3.18066995 8.28589989,2.21570006 8.98168573,1.42670609 C9.32905718,1.02722463 9.77085156,0.695061201 10.3066054,0.430088137 C10.8412019,0.169068629 11.3468703,0.0247192194 11.8224525,0 C11.8363391,0.125562431 11.8421245,0.251132764 11.8421245,0.375707122 L11.8421245,0.375719303 Z" id="path4"></path>
                            </g>
                        </g>
                    </g>
                </g>
            </g>
        </g>
    </g>
</svg>