<?xml version="1.0" encoding="UTF-8"?>
<svg width="43px" height="42px" viewBox="0 0 43 42" version="1.1" xmlns="http://www.w3.org/2000/svg" xmlns:xlink="http://www.w3.org/1999/xlink">
    <!-- Generator: Sketch 60.1 (88133) - https://sketch.com -->
    <title>Group</title>
    <desc>Created with Sketch.</desc>
    <defs>
        <linearGradient x1="5.67210478%" y1="55.3676928%" x2="101.846278%" y2="55.3676928%" id="linearGradient-1">
            <stop stop-color="#009EE8" offset="0%"></stop>
            <stop stop-color="#6556A8" offset="100%"></stop>
        </linearGradient>
        <linearGradient x1="5.67210478%" y1="55.3676928%" x2="101.846278%" y2="55.3676928%" id="linearGradient-2">
            <stop stop-color="#009EE8" offset="0%"></stop>
            <stop stop-color="#6556A8" offset="100%"></stop>
        </linearGradient>
    </defs>
    <g id="Page-1" stroke="none" stroke-width="1" fill="none" fill-rule="evenodd">
        <g id="주식버튼" transform="translate(-2044.000000, -222.000000)">
            <g id="Group-31" transform="translate(1916.000000, 64.000000)">
                <g id="Group-6" transform="translate(23.000000, 160.000000)">
                    <g id="Group" transform="translate(107.000000, 0.000000)">
                        <circle id="Oval" stroke="url(#linearGradient-1)" stroke-width="1.8" fill="#FFFFFF" cx="19" cy="19" r="19.9"></circle>
                        <g id="Group-2">
                            <ellipse id="Oval" stroke="url(#linearGradient-2)" stroke-width="1.8" fill="#FFFFFF" cx="19.5" cy="19" rx="20.4" ry="19.9"></ellipse>
                            <g id="Group-3" transform="translate(6.000000, 10.000000)" fill="#204592">
                                <g id="Hilton_logo">
                                    <path d="M15.8629874,6.6840031 C15.8629874,7.02630427 15.7804355,7.42183062 15.5379181,7.76943592 L16.2203346,7.76943592 L16.2203346,2.31460081 L14.0360994,2.31460081 L14.0360994,4.54385199 C15.2179833,4.92215185 15.8629874,5.70387437 15.8629874,6.6840031 M12.0841239,4.34816974 C12.5744442,4.34816974 13.0362747,4.46796396 13.3872027,4.56393026 C12.6440727,4.4293695 11.4894287,4.62376167 10.8920908,5.1085159 L10.8920908,7.76943592 L13.0814413,7.76943592 L13.0814413,4.74096813 C13.5549494,4.83292397 13.9136547,5.03133019 14.1315749,5.18052927 L14.1315749,7.76943592 L14.6050829,7.76943592 C14.1561721,8.28876696 13.3227128,8.60969177 12.5964026,8.49247333 L12.5964026,8.60179147 C14.679993,8.77085713 15.5598765,7.75336771 15.5598765,6.60681739 C15.5598765,5.25641691 14.3354571,4.46796396 13.0801915,4.30685092 L13.0801915,2.31460081 L10.8908449,2.31460081 L10.8908449,4.32821928 C9.47421701,4.6211775 8.08859401,5.49083781 8.08859401,6.93176425 C8.08859401,9.14507903 11.086942,10.5181539 13.6981026,10.5181539 C17.6640323,10.5181539 20.7151926,8.53910429 20.7151926,5.76111761 C20.7151926,2.39709067 16.3106407,0 12.8479549,0 C8.88202913,0 5.96247208,2.60094882 5.96247208,5.3789355 C5.96247208,6.81986194 6.74423732,8.02106334 7.7325198,8.86404315 L7.8060485,8.81211205 C7.02552918,8.14099376 6.31979221,7.09817784 6.31979221,5.66527951 C6.52618177,2.62088729 10.1567458,0.909541257 13.3884525,0.909541257 C15.6720287,0.909541257 19.7773584,1.4529766 19.7773584,5.39623388 C19.7773584,7.45381126 17.6498512,10.1319578 13.1742856,10.1319578 C10.8869562,10.1319578 9.10786975,8.86547304 9.10786975,7.04494866 C9.10786975,5.47074755 10.3025418,4.34816974 12.0841239,4.34816974 M3.37314219,18.4486913 L3.37314219,18.147709 L4.13822292,18.147709 L4.13822292,15.4522201 L2.08299467,15.4522201 L2.08299467,18.147709 L2.86864858,18.147709 L2.86864858,18.4486913 L0.0497132133,18.4486913 L0.0497132133,18.147709 L0.769631236,18.147709 L0.769631236,12.6595951 L0.0497132133,12.6595951 L0.0497132133,12.3545948 L2.86864858,12.3545948 L2.86864858,12.6595951 L2.08299467,12.6595951 L2.08299467,15.0912626 L4.13822292,15.0912626 L4.13822292,12.6595951 L3.37314219,12.6595951 L3.37314219,12.3545948 L6.1727503,12.3545948 L6.1727503,12.6595951 L5.44505494,12.6595951 L5.44505494,18.147709 L6.1727503,18.147709 L6.1727503,18.4486913 L3.37314219,18.4486913 Z M7.40480771,12.3558928 L8.68203169,12.3558928 L8.68203169,13.0816582 L7.40480771,13.0816582 L7.40480771,12.3558928 Z M6.77648037,18.4486913 L6.77648037,18.1556053 L7.46164802,18.1556053 L7.46164802,14.3654972 L6.77648037,14.3654972 L6.77648037,14.0619267 L8.73498334,14.0619267 L8.73498334,18.1543072 L9.3826302,18.1543072 L9.3826302,18.4472535 L6.77648037,18.4472535 L6.77648037,18.4486913 Z M9.75802393,18.4486913 L9.75802393,18.147709 L10.4689032,18.147709 L10.4689032,11.8552062 L9.75802393,11.8552062 L9.75802393,11.5675721 L11.7487699,11.5675721 L11.7487699,18.1462791 L12.4157324,18.1462791 L12.4157324,18.4472535 L9.75802393,18.4472535 L9.75802393,18.4486913 Z M14.4116169,18.4486913 C13.8245714,18.4486913 13.3407825,18.1729596 13.3407825,17.5071574 L13.3407825,14.358899 L12.6479691,14.358899 L12.6479691,14.0632248 L13.3407825,14.0632248 L13.3407825,12.3705232 L14.5380508,12.3705232 L14.5380508,14.0632248 L15.5262405,14.0632248 L15.5262405,14.358899 L14.5380508,14.358899 L14.5380508,18.1570352 L15.5404138,18.1570352 L15.5404138,18.4499814 L14.4116169,18.4499814 L14.4116169,18.4486913 Z M18.265255,18.5725 C16.9170097,18.5725 15.7985052,17.6988216 15.7985052,16.2392428 C15.7985052,14.8329211 16.9377221,13.9513225 18.2303731,13.9513225 C19.5863958,13.9513225 20.6068671,14.927577 20.6068671,16.3511491 C20.6055361,17.7121619 19.5451217,18.5725 18.265255,18.5725 M17.2112328,16.2220283 C17.2112328,16.6095146 17.1956704,17.481763 17.3880143,17.8346805 C17.5724454,18.1623473 17.8640181,18.3194347 18.2291272,18.3194347 C19.2174096,18.3194347 19.2340864,17.2034471 19.2264445,16.4577313 L19.2264445,16.1794234 C19.2160593,15.3816327 19.3167738,14.2363804 18.223981,14.2363804 C17.1789936,14.2363804 17.2112328,15.446908 17.2112328,16.2220283 M24.0979654,18.4486913 L24.0979654,18.1556053 L24.6643101,18.1556053 L24.6643101,15.4895129 C24.6643101,15.0047627 24.6643101,14.4094681 24.0464067,14.4094681 C23.5599751,14.4094681 23.0993905,14.9008965 22.9833418,15.3589662 C22.9355364,15.5747268 22.9433215,15.8064237 22.9433215,16.0221842 L22.9433215,18.1556053 L23.594857,18.1556053 L23.594857,18.4486913 L20.9861998,18.4486913 L20.9861998,18.1556053 L21.6712359,18.1556053 L21.6712359,14.3654972 L20.9861998,14.3654972 L20.9861998,14.0619267 L22.9445713,14.0619267 L22.9445713,14.7370591 C23.2013626,14.4174323 23.3780512,14.2457066 23.7535688,14.0899053 C23.9973437,13.9860151 24.2644622,13.9260679 24.5250532,13.9260679 C24.7160119,13.9260679 24.9159978,13.9593586 25.0991714,14.0099956 C25.7944999,14.217728 25.9622442,14.685124 25.9622442,15.3589662 L25.9622442,18.1556053 L26.6318495,18.1556053 L26.6318495,18.4486913 L24.0979654,18.4486913 Z" id="path2379"></path>
                                </g>
                            </g>
                        </g>
                    </g>
                </g>
            </g>
        </g>
    </g>
</svg>