<?xml version="1.0" encoding="UTF-8"?>
<svg width="43px" height="42px" viewBox="0 0 43 42" version="1.1" xmlns="http://www.w3.org/2000/svg" xmlns:xlink="http://www.w3.org/1999/xlink">
    <!-- Generator: Sketch 60.1 (88133) - https://sketch.com -->
    <title>Group</title>
    <desc>Created with Sketch.</desc>
    <defs>
        <linearGradient x1="5.67210478%" y1="55.3676928%" x2="101.846278%" y2="55.3676928%" id="linearGradient-1">
            <stop stop-color="#009EE8" offset="0%"></stop>
            <stop stop-color="#6556A8" offset="100%"></stop>
        </linearGradient>
        <linearGradient x1="5.67210478%" y1="55.3676928%" x2="101.846278%" y2="55.3676928%" id="linearGradient-2">
            <stop stop-color="#009EE8" offset="0%"></stop>
            <stop stop-color="#6556A8" offset="100%"></stop>
        </linearGradient>
        <rect id="path-3" x="0" y="0" width="31.6781856" height="25"></rect>
        <radialGradient cx="62.2678257%" cy="36.4793781%" fx="62.2678257%" fy="36.4793781%" r="49.093899%" gradientTransform="translate(0.622678,0.364794),scale(0.976562,1.000000),translate(-0.622678,-0.364794)" id="radialGradient-5">
            <stop stop-color="#FFFFFF" offset="0%"></stop>
            <stop stop-color="#D2A143" offset="100%"></stop>
        </radialGradient>
        <radialGradient cx="57.7204792%" cy="37.6623331%" fx="57.7204792%" fy="37.6623331%" r="106.893513%" gradientTransform="translate(0.577205,0.376623),scale(0.976562,1.000000),translate(-0.577205,-0.376623)" id="radialGradient-6">
            <stop stop-color="#00B8EE" offset="0%"></stop>
            <stop stop-color="#0092D3" offset="22%"></stop>
            <stop stop-color="#007BC2" offset="30%"></stop>
            <stop stop-color="#0069B5" offset="38%"></stop>
            <stop stop-color="#005EAD" offset="47%"></stop>
            <stop stop-color="#005BAB" offset="57%"></stop>
        </radialGradient>
    </defs>
    <g id="Page-1" stroke="none" stroke-width="1" fill="none" fill-rule="evenodd">
        <g id="주식버튼" transform="translate(-1841.000000, -222.000000)">
            <g id="Group-22" transform="translate(1713.000000, 64.000000)">
                <g id="Group-6" transform="translate(23.000000, 160.000000)">
                    <g id="Group" transform="translate(107.000000, 0.000000)">
                        <circle id="Oval" stroke="url(#linearGradient-1)" stroke-width="1.8" fill="#FFFFFF" cx="19" cy="19" r="19.9"></circle>
                        <g id="Group-2">
                            <ellipse id="Oval" stroke="url(#linearGradient-2)" stroke-width="1.8" fill="#FFFFFF" cx="19.5" cy="19" rx="20.4" ry="19.9"></ellipse>
                            <g id="lff" transform="translate(3.000000, 7.000000)">
                                <mask id="mask-4" fill="white">
                                    <use xlink:href="#path-3"></use>
                                </mask>
                                <g id="Rectangle"></g>
                                <g id="s" mask="url(#mask-4)" fill-rule="nonzero">
                                    <g transform="translate(7.680000, 3.125000)">
                                        <path d="M8.25170464,1.25875153 C4.76058087,1.41218515 1.7079022,3.60432486 0.517252568,6.81288984 C-0.673397066,10.0214548 0.232485861,13.6145045 2.81245257,15.9164587 C5.39241928,18.2184129 9.13833431,18.775892 12.3033304,17.3289215 C15.4683265,15.881951 17.4290441,12.715518 17.2711237,9.30625449 C17.1688699,7.07071856 16.1608995,4.96654685 14.4691964,3.4571386 C12.7774933,1.94773036 10.5408014,1.15687855 8.25170464,1.25875153 Z" id="Path" fill="url(#radialGradient-5)"></path>
                                        <path d="M9.19675047,0.00900128226 C5.57636443,0.168343584 2.41079067,2.44185092 1.17624115,5.76931149 C-0.0583083757,9.09677205 0.881312175,12.8228389 3.5569266,15.2099237 C6.23254102,17.5970084 10.1171842,18.1749721 13.3993183,16.6742912 C16.6814524,15.1736102 18.7146576,11.8898453 18.550783,8.3543249 C18.3266054,3.52773294 14.13924,-0.208080371 9.19675047,0.00900128226 Z M10.2460891,8.5000201 C11.83885,9.93336789 12.711493,10.7057967 12.711493,10.7057967 C15.5177861,12.9888975 14.5601292,15.0750249 13.48662,15.801873 C12.668986,16.3545381 11.7621708,16.6158127 10.5736427,16.6768582 C10.4661251,16.6915091 10.2727601,16.6312776 10.2627585,16.4456993 C10.2544238,16.247912 10.551139,16.2015174 10.551139,16.2015174 C13.2007398,15.6919912 12.4264463,13.9949269 11.4887927,13.1288951 C11.0945614,12.7642501 7.40479022,9.65744234 7.40479022,9.65744234 C3.88838079,6.69551581 4.16926014,4.38718286 4.16926014,4.38718286 C4.33595411,1.54571941 6.88720543,0.840847643 8.8141878,1.00363558 C9.04005813,1.02235619 9.16507862,1.15747018 9.12423859,1.34060661 C9.08173163,1.54083577 8.78418288,1.55548669 8.78418288,1.55548669 C8.17074905,1.59130003 7.62232586,1.65234551 7.2005901,1.92664319 C5.65200306,2.94650961 6.1104115,4.68182903 8.17825028,6.61330791 C8.43829288,6.85748981 8.71500488,7.11306687 8.99838464,7.37271363 C9.00171852,7.37271363 9.41845346,7.73247498 10.2460891,8.5000201 Z M9.04339201,15.8450118 C9.05922794,16.1209374 8.36911488,16.2422144 7.58148584,16.1705877 C6.5946575,16.072915 5.40946332,15.7676876 4.38012802,14.8951442 C3.4341397,14.0991112 2.84404302,12.9986648 2.5623302,12.0349602 C2.27061574,11.0460234 2.14559526,9.89022909 2.62984126,9.98139033 C2.77736543,10.0098782 3.03324069,10.6455651 3.31161963,11.1070689 C3.59833327,11.5856655 3.83420525,11.8493819 4.05257435,12.010542 C4.15259074,12.0829826 4.48931257,11.3496229 4.98022633,10.9320719 C5.2661065,10.7025409 5.57949118,10.6235887 5.62949937,11.3097399 C5.69034267,12.1529814 5.53615075,13.1549412 5.78702518,13.1549412 C6.02289716,13.1549412 6.55381747,12.982386 7.72067531,12.8855271 C8.158247,12.8488998 8.40745449,12.9294799 7.98988608,13.5065631 C7.68536098,13.9580157 7.29693322,14.349765 6.84469846,14.6615435 C7.83236027,15.5690863 9.02255527,15.4600184 9.04339201,15.8450118 Z M9.82518676,7.02597533 C9.749341,6.74272432 9.73267161,6.38459085 9.79268144,5.92797069 C9.91686845,4.97321944 10.1802449,4.52392473 10.4794606,3.78405355 C10.884527,2.78941925 9.90103252,2.20826632 10.0627257,1.84199346 C10.2852621,1.34630419 10.9878773,1.97629351 11.7705055,2.02268807 C12.4456161,2.05931535 12.8540163,2.02268807 13.3766019,2.09431476 C14.0733828,2.18466207 14.9076861,2.41989064 15.2785802,2.84151139 C15.6186359,3.23057456 15.0985507,3.70591534 14.4734483,3.41126918 C14.0167068,3.19394728 13.4407791,3.32987521 13.7783344,3.79300689 C14.1850677,4.23579008 14.3800997,4.24718523 14.7935007,4.35462527 C15.9353545,4.64764356 15.9603586,5.71390455 15.1868985,6.26738354 C14.3075878,6.89493104 13.4191089,6.63609822 13.0615503,5.40379353 C12.8823543,4.78926907 12.4372814,4.47590229 11.9822068,4.65008538 C11.5271323,4.82426847 11.7971765,5.63332452 12.142233,6.38377691 C12.8315126,8.10118965 11.118732,8.04421388 10.9195327,8.02142356 C10.3914615,7.91817262 9.96808344,7.5330559 9.82518676,7.02597533 L9.82518676,7.02597533 Z" id="Shape" fill="url(#radialGradient-6)"></path>
                                    </g>
                                </g>
                            </g>
                        </g>
                    </g>
                </g>
            </g>
        </g>
    </g>
</svg>